<?xml version="1.0" encoding="UTF-8"?>
<svg version="1.1" xmlns="http://www.w3.org/2000/svg" width="485" height="515">
<path d="M0 0 C0.33 0 0.66 0 1 0 C1.31364431 2.62486789 1.62611288 5.249864 1.9375 7.875 C2.0303125 8.65496338 2.123125 9.43492676 2.21875 10.23852539 C2.69801263 14.3017106 3.14017522 18.3616666 3.5 22.4375 C3.96666293 27.36715749 4.94088715 32.16715497 6 37 C6.33 36.34 6.66 35.68 7 35 C7.66 35 8.32 35 9 35 C9.13535156 35.80179688 9.27070312 36.60359375 9.41015625 37.4296875 C10.97342662 45.68600166 13.38153129 53.11333429 16.57446289 60.86865234 C19.28474454 67.47161728 20.13154947 72.88647623 20 80.0625 C19.8106165 86.10851263 19.8106165 86.10851263 21 92 C21.33 91.67 21.66 91.34 22 91 C21.88110392 88.97579426 21.703827 86.95492402 21.5 84.9375 C20.38892243 71.77772411 20.38892243 71.77772411 24 66 C24.66 66 25.32 66 26 66 C26.18175781 66.72445312 26.36351562 67.44890625 26.55078125 68.1953125 C28.48884931 75.9127947 28.48884931 75.9127947 32 83 C32.94552734 83.41958984 32.94552734 83.41958984 33.91015625 83.84765625 C36.68300881 85.37661234 37.49342721 87.11567918 39 89.875 C41.33257372 94.12180541 43.61572757 97.87798944 48.125 100 C50.50698956 101.27039443 50.84948261 102.62226406 52 105 C52.99 105.33 53.98 105.66 55 106 C55 106.66 55 107.32 55 108 C55.99 108 56.98 108 58 108 C58 108.66 58 109.32 58 110 C58.66 110 59.32 110 60 110 C60 110.66 60 111.32 60 112 C62.12364481 112.22609337 62.12364481 112.22609337 63.625 110.5 C64.07875 110.005 64.5325 109.51 65 109 C75.18165386 118.83190239 75.18165386 118.83190239 79 125 C79.7425 125.7425 80.485 126.485 81.25 127.25 C81.8275 127.8275 82.405 128.405 83 129 C83 129.66 83 130.32 83 131 C83.66 131 84.32 131 85 131 C85 131.66 85 132.32 85 133 C86.47778411 133.46277164 87.95733215 133.91991034 89.4375 134.375 C90.26121094 134.63023437 91.08492188 134.88546875 91.93359375 135.1484375 C92.94550781 135.42945313 93.95742187 135.71046875 95 136 C95.63897217 136.17789063 96.27794434 136.35578125 96.9362793 136.5390625 C103.29107021 138.14406099 109.40619169 138.29932391 115.9375 138.25 C116.95779297 138.25773438 117.97808594 138.26546875 119.02929688 138.2734375 C128.84546055 138.24838029 139.961544 137.58099721 147.546875 130.5703125 C151.5252545 126.09998284 154.85710347 121.06816302 158.265625 116.16015625 C158.83796875 115.44730469 159.4103125 114.73445313 160 114 C160.66 114 161.32 114 162 114 C162 113.34 162 112.68 162 112 C165.46153846 109 165.46153846 109 168 109 C168.33 109.99 168.66 110.98 169 112 C170.58459815 110.58474822 172.16762391 109.1677358 173.75 107.75 C175.07257813 106.56664062 175.07257813 106.56664062 176.421875 105.359375 C178.04891775 103.87038436 179.6443204 102.34534291 181.19140625 100.7734375 C183.0326546 98.96798015 184.70089632 98.10991212 187 97 C187.33 96.34 187.66 95.68 188 95 C188.66 95 189.32 95 190 95 C190.268125 94.29875 190.53625 93.5975 190.8125 92.875 C192.0681449 89.8350176 193.50235123 86.9272226 195 84 C195.99 84 196.98 84 198 84 C200.92678249 78.44920563 203.1668733 72.99932374 205 67 C205.66 67 206.32 67 207 67 C209.14197385 73.22192404 210.34657578 78.41506018 210 85 C210 85.99 210 86.98 210 88 C211.16826994 84.49519019 210.88877234 82.06104639 210.6875 78.375 C210.465353 69.82548407 213.14462591 62.92657964 216.22607422 55.07226562 C218.65800884 48.56051134 220.35023789 41.74605695 222 35 C222.66 35 223.32 35 224 35 C224.02940458 38.16664666 224.04693315 41.33325747 224.0625 44.5 C224.07087891 45.386875 224.07925781 46.27375 224.08789062 47.1875 C224.10763596 52.55823086 223.78835893 57.68633663 223 63 C224.32 60.69 225.64 58.38 227 56 C226.34 56 225.68 56 225 56 C224.94093881 52.39590461 224.90605361 48.79193691 224.875 45.1875 C224.85824219 44.18267578 224.84148437 43.17785156 224.82421875 42.14257812 C224.7856458 36.14448404 225.29593104 30.63076846 226.48779297 24.7565918 C227.3757381 19.97785563 227.72736854 15.1525223 228.125 10.3125 C228.25455078 8.81299805 228.25455078 8.81299805 228.38671875 7.28320312 C228.59577538 4.85582333 228.8001442 2.42815158 229 0 C229.66 0 230.32 0 231 0 C234.5160054 13.81287836 235.35025254 27.89848477 233 42 C235.475 36.555 235.475 36.555 238 31 C238.33 31 238.66 31 239 31 C239.98659629 46.20089105 235.99387376 61.10290716 228 74 C228.66 74 229.32 74 230 74 C229.46148032 79.27749285 228.22656164 83.25645564 226 88 C225.34 88 224.68 88 224 88 C223.7525 88.7425 223.505 89.485 223.25 90.25 C221.89999414 93.22001289 220.28240972 94.71759028 218 97 C217.78923828 97.91072266 217.78923828 97.91072266 217.57421875 98.83984375 C216.26522768 103.7641435 212.15102981 108.39455364 208.12109375 111.40234375 C206.45986722 112.35315375 204.73115702 113.1834165 203 114 C202.195625 114.4125 201.39125 114.825 200.5625 115.25 C200.046875 115.4975 199.53125 115.745 199 116 C200.98 116 202.96 116 205 116 C203.06875032 122.01855061 199.36025711 124.06736346 194 127 C188.37827106 129.20853637 181.56941257 130.44040012 175.79296875 128.109375 C174 127 174 127 173 125 C172.01 125.66 171.02 126.32 170 127 C175.21443596 128.68561267 179.97539135 129.38512698 185.4375 129.625 C186.53481445 129.68300781 186.53481445 129.68300781 187.65429688 129.7421875 C189.43583532 129.83533984 191.21788122 129.91870286 193 130 C193 130.66 193 131.32 193 132 C185.43071692 139.21866234 177.61580726 142.33401556 167.3125 142.4375 C166.58748291 142.44765137 165.86246582 142.45780273 165.11547852 142.46826172 C160.3728231 142.39096836 157.16486311 141.47268251 153 139 C153 138.01 153 137.02 153 136 C149.04 137.98 149.04 137.98 145 140 C145.99 140.33 146.98 140.66 148 141 C148 141.66 148 142.32 148 143 C152.29 143 156.58 143 161 143 C158.7004293 146.44935605 157.89922969 146.89804378 154 148 C151.30765125 148.157477 148.70218571 148.09007286 146 148 C145.67 148 145.34 148 145 148 C144.67 148.66 144.34 149.32 144 150 C139.25 149.125 139.25 149.125 137 148 C137 148.66 137 149.32 137 150 C130.97679474 150.33325111 126.36474817 150.01819423 120.796875 147.6796875 C115.67780243 145.74334266 111.66304589 147.38997844 106.89453125 149.33203125 C104.52043571 150.16908349 102.49511495 150.2201572 100 150 C99.34 150 98.68 150 98 150 C96.68 150 95.36 150 94 150 C94 149.01 94 148.02 94 147 C93.608125 147.495 93.21625 147.99 92.8125 148.5 C90.44908285 150.45593143 88.98564997 150.24207973 86 150 C86 149.01 86 148.02 86 147 C85.34 147.33 84.68 147.66 84 148 C78.3714624 148.44145393 74.94495744 147.42201997 70 145 C70 144.34 70 143.68 70 143 C70.81984375 142.93941406 71.6396875 142.87882813 72.484375 142.81640625 C73.56203125 142.73261719 74.6396875 142.64882813 75.75 142.5625 C77.35101563 142.44068359 77.35101563 142.44068359 78.984375 142.31640625 C81.43679962 142.05909227 83.63921291 141.68187782 86 141 C86 140.01 86 139.02 86 138 C82.02245872 137.26665571 82.02245872 137.26665571 78 137 C77.67 137.99 77.34 138.98 77 140 C72.81298777 142.38116344 68.45138206 142.38481607 63.75 142.375 C62.61546387 142.37367065 62.61546387 142.37367065 61.45800781 142.37231445 C55.55288367 142.24722741 51.05822071 141.14860031 46 138 C44.4840625 137.195625 44.4840625 137.195625 42.9375 136.375 C42.298125 135.92125 41.65875 135.4675 41 135 C41 134.34 41 133.68 41 133 C39.68 132.34 38.36 131.68 37 131 C37 130.67 37 130.34 37 130 C39.31 129.67 41.62 129.34 44 129 C43.25234375 128.74605469 42.5046875 128.49210938 41.734375 128.23046875 C40.25710937 127.71419922 40.25710937 127.71419922 38.75 127.1875 C37.77546875 126.85105469 36.8009375 126.51460938 35.796875 126.16796875 C33.11711507 125.04890699 31.14631942 123.94701833 29 122 C29 121.34 29 120.68 29 120 C28.01 119.67 27.02 119.34 26 119 C25.67 118.01 25.34 117.02 25 116 C25.78246094 116.08378906 26.56492188 116.16757812 27.37109375 116.25390625 C28.38300781 116.35574219 29.39492187 116.45757812 30.4375 116.5625 C31.95150391 116.71912109 31.95150391 116.71912109 33.49609375 116.87890625 C34.73552734 116.93884766 34.73552734 116.93884766 36 117 C36.33 116.67 36.66 116.34 37 116 C36.33613281 115.89042969 35.67226562 115.78085937 34.98828125 115.66796875 C25.76470588 114.01176471 25.76470588 114.01176471 22 111 C22 110.34 22 109.68 22 109 C21.01 109 20.02 109 19 109 C16 105.66666667 16 105.66666667 16 103 C15.34 103 14.68 103 14 103 C14 101.68 14 100.36 14 99 C13.34 99 12.68 99 12 99 C11.90460938 98.41734375 11.80921875 97.8346875 11.7109375 97.234375 C10.84803409 94.52239285 9.6079095 93.27474304 7.625 91.25 C3.1307048 86.30350672 1 81.82650842 1 75 C1.495 74.505 1.495 74.505 2 74 C1.59007813 73.13117188 1.18015625 72.26234375 0.7578125 71.3671875 C-0.05042969 69.63855469 -0.05042969 69.63855469 -0.875 67.875 C-1.40867187 66.73804688 -1.94234375 65.60109375 -2.4921875 64.4296875 C-5.25101768 58.15442091 -6.60396721 52.17319083 -7.625 45.4375 C-7.7590625 44.60025391 -7.893125 43.76300781 -8.03125 42.90039062 C-8.65196683 38.90056737 -9.18274002 35.06181218 -9 31 C-8.34 31 -7.68 31 -7 31 C-5.68 34.3 -4.36 37.6 -3 41 C-3.02320312 39.44152344 -3.04640625 37.88304687 -3.0703125 36.27734375 C-3.37498622 6.74997245 -3.37498622 6.74997245 0 0 Z M-2 43 C-1 46 -1 46 -1 46 Z M-1 46 C0 49 0 49 0 49 Z M3 48 C4 50 4 50 4 50 Z M6 50 C5.87625 50.969375 5.7525 51.93875 5.625 52.9375 C5.41875 53.948125 5.2125 54.95875 5 56 C4.01 56.495 4.01 56.495 3 57 C4.65 60.3 6.3 63.6 8 67 C9.26237731 63.21286807 8.67558873 60.74348067 8.0625 56.8125 C7.77052734 54.90404297 7.77052734 54.90404297 7.47265625 52.95703125 C7.31667969 51.98121094 7.16070312 51.00539063 7 50 C6.67 50 6.34 50 6 50 Z M9 68 C10 70 10 70 10 70 Z M220 70 C221 73 221 73 221 73 Z M219 74 C218.01 76.97 217.02 79.94 216 83 C217.65 82.34 219.3 81.68 221 81 C220.67 78.69 220.34 76.38 220 74 C219.67 74 219.34 74 219 74 Z M11 75 C10.67 76.98 10.34 78.96 10 81 C12.475 81.99 12.475 81.99 15 83 C14.01 80.36 13.02 77.72 12 75 C11.67 75 11.34 75 11 75 Z M28 89 C29 93 29 93 29 93 Z M197 92 C196.93941406 92.59167969 196.87882813 93.18335938 196.81640625 93.79296875 C196.73261719 94.58316406 196.64882813 95.37335938 196.5625 96.1875 C196.48128906 96.96480469 196.40007812 97.74210937 196.31640625 98.54296875 C195.99402379 101.04640786 195.49501895 103.52490524 195 106 C198.96 104.35 202.92 102.7 207 101 C207.33 98.36 207.66 95.72 208 93 C205.2175651 94.39121745 204.44789935 96.30164212 203 99 C203 99.66 203 100.32 203 101 C202.01 101 201.02 101 200 101 C199.34 98.03 198.68 95.06 198 92 C197.67 92 197.34 92 197 92 Z M32 92 C31.731875 93.11375 31.46375 94.2275 31.1875 95.375 C30 99 30 99 27 101 C26.566875 99.576875 26.566875 99.576875 26.125 98.125 C25.23174891 94.94788422 25.23174891 94.94788422 23 93 C23 95.64 23 98.28 23 101 C24.6232687 101.6708712 26.24867578 102.33657029 27.875 103 C28.77992188 103.37125 29.68484375 103.7425 30.6171875 104.125 C32.88983858 105.11490226 32.88983858 105.11490226 35 105 C34.34 100.71 33.68 96.42 33 92 C32.67 92 32.34 92 32 92 Z M46 101 C47 103 47 103 47 103 Z M36 106 C37 108 37 108 37 108 Z M38 109 C39 111 39 111 39 111 Z M191 110 C192 112 192 112 192 112 Z M48 111 C47.5359375 112.175625 47.5359375 112.175625 47.0625 113.375 C46 116 46 116 45 118 C47.64 118.99 50.28 119.98 53 121 C52.71125 120.278125 52.4225 119.55625 52.125 118.8125 C51.08333333 116.20833333 50.04166667 113.60416667 49 111 C48.67 111 48.34 111 48 111 Z M40 112 C40 113.65 40 115.3 40 117 C41.65 117 43.3 117 45 117 C43.35 115.35 41.7 113.7 40 112 Z M182 112 C180.94104104 113.64270642 179.92752526 115.31485062 178.9375 117 C178.38964844 117.928125 177.84179688 118.85625 177.27734375 119.8125 C176.85582031 120.534375 176.43429687 121.25625 176 122 C176.88945312 121.53980469 176.88945312 121.53980469 177.796875 121.0703125 C180.45829652 119.7773524 183.18339192 118.89619348 186 118 C185.34 117.67 184.68 117.34 184 117 C183.375 114.4375 183.375 114.4375 183 112 C182.67 112 182.34 112 182 112 Z M167 113 C168 116 168 116 168 116 Z M189 113 C187.515 114.98 187.515 114.98 186 117 C187.32 117 188.64 117 190 117 C189.67 115.68 189.34 114.36 189 113 Z M64 118 C65 120 65 120 65 120 Z M53 121 C53.66 121.66 54.32 122.32 55 123 C55 122.34 55 121.68 55 121 C54.34 121 53.68 121 53 121 Z M65 121 C65.020625 121.94875 65.04125 122.8975 65.0625 123.875 C65 127 65 127 64 129 C65.6396875 129.7115625 65.6396875 129.7115625 67.3125 130.4375 C67.92738281 130.70433594 68.54226562 130.97117187 69.17578125 131.24609375 C70.75711021 131.89961942 72.37675406 132.45891802 74 133 C74.23245165 130.70116241 74.23245165 130.70116241 71.75 128.6875 C70.8425 127.800625 69.935 126.91375 69 126 C67.64444707 124.35135455 66.30368347 122.68996005 65 121 Z M165 121 C166 123 166 123 166 123 Z M55 123 C55 124.32 55 125.64 55 127 C54.34 127.66 53.68 128.32 53 129 C56.3 128.67 59.6 128.34 63 128 C60.31158141 125.74754119 58.35358125 124.11786042 55 123 Z M164 123 C163.67 124.32 163.34 125.64 163 127 C162.34 127 161.68 127 161 127 C160.34 128.32 159.68 129.64 159 131 C161.31 130.34 163.62 129.68 166 129 C165.67 127.02 165.34 125.04 165 123 C164.67 123 164.34 123 164 123 Z M153 129 C153 132 153 132 153 132 Z M156 132 C155.67 132.66 155.34 133.32 155 134 C155.99 133.67 156.98 133.34 158 133 C157.34 132.67 156.68 132.34 156 132 Z M74 133 C74.66 133.66 75.32 134.32 76 135 C76 134.34 76 133.68 76 133 C75.34 133 74.68 133 74 133 Z M97 139 C98 141 98 141 98 141 Z M91 141 C92 143 92 143 92 143 Z M128 141 C129 144 129 144 129 144 Z M134 143 C135 145 135 145 135 145 Z M101 144 C102 146 102 146 102 146 Z M135 145 C135.33 145.99 135.66 146.98 136 148 C136 147.01 136 146.02 136 145 C135.67 145 135.34 145 135 145 Z " fill="#CFCFCF" transform="translate(106,211)"/>
<path d="M0 0 C1.65 0.33 3.3 0.66 5 1 C5.05607422 2.52367187 5.05607422 2.52367187 5.11328125 4.078125 C5.60929383 15.22142135 6.82585684 25.30345347 12.20703125 35.26171875 C13.43402002 37.95142319 13.38595086 40.10536856 13 43 C12.67 43.804375 12.34 44.60875 12 45.4375 C10.7222191 48.71181355 10.86343857 51.51768358 11 55 C11.86625 54.34 12.7325 53.68 13.625 53 C20.16442288 49.41888747 27.50636878 49.71025023 34.51611328 51.72216797 C43.77405862 54.83293223 52.68096497 58.77562802 61.4921875 62.96875 C66.16242637 64.88922206 71.07400532 65.94258753 76 67 C75.67 68.32 75.34 69.64 75 71 C73.5421403 71.05583292 72.08359017 71.09358421 70.625 71.125 C69.81289063 71.14820313 69.00078125 71.17140625 68.1640625 71.1953125 C57.82097877 70.55685054 48.06014212 66.92863859 38.28125 63.74609375 C36.61835938 63.21822266 36.61835938 63.21822266 34.921875 62.6796875 C33.92768555 62.35726074 32.93349609 62.03483398 31.90917969 61.70263672 C28.78348719 60.94770696 26.20347837 60.73994514 23 61 C19.78170896 62.92293518 19.78170896 62.92293518 17 65 C16.34 65 15.68 65 15 65 C13.1820788 69.19520278 11.93642803 73.50245934 10.68359375 77.890625 C10 80 10 80 9 81 C6.85605481 81.0991757 4.70873268 81.1297015 2.5625 81.125 C1.38816406 81.12757813 0.21382813 81.13015625 -0.99609375 81.1328125 C-4 81 -4 81 -6 80 C-6.50423397 78.28910207 -6.92930565 76.55450623 -7.3125 74.8125 C-8.66513687 69.57867896 -10.0388445 66.67821583 -14 63 C-18.59967201 60.40531322 -22.97979318 60.52440055 -28.05200195 61.71850586 C-29.10347412 62.04729736 -30.15494629 62.37608887 -31.23828125 62.71484375 C-32.38748047 63.07126953 -33.53667969 63.42769531 -34.72070312 63.79492188 C-35.90599609 64.17197266 -37.09128906 64.54902344 -38.3125 64.9375 C-40.11944336 65.49727539 -40.11944336 65.49727539 -41.96289062 66.06835938 C-47.36082164 67.33220045 -47.36082164 67.33220045 -52 70 C-58.35238448 71.05873075 -64.57117333 71.10635926 -71 71 C-71 69.68 -71 68.36 -71 67 C-69.33324219 66.54560547 -69.33324219 66.54560547 -67.6328125 66.08203125 C-58.0591841 63.5056385 -58.0591841 63.5056385 -49 59.5625 C-38.34466856 53.86271453 -26.24318922 48.93692115 -14 51 C-10.99427733 52.06566531 -8.72181719 53.29219313 -6 55 C-6.51100868 49.5182784 -6.51100868 49.5182784 -8.125 44.3125 C-9.2685803 41.29018064 -8.98187131 40.08588126 -8 37 C-7.37869343 35.7065527 -6.75315561 34.41513499 -6.125 33.125 C-1.43039621 22.84808552 -0.54562446 11.15707952 0 0 Z M2 37 C1.01 37.495 1.01 37.495 0 38 C0.33 39.32 0.66 40.64 1 42 C1.99 42 2.98 42 4 42 C4.33 41.01 4.66 40.02 5 39 C4.01 38.34 3.02 37.68 2 37 Z M2 63 C2 63.66 2 64.32 2 65 C1.01 65.33 0.02 65.66 -1 66 C-0.67 66.99 -0.34 67.98 0 69 C1.32 69 2.64 69 4 69 C4 68.01 4 67.02 4 66 C4.66 65.67 5.32 65.34 6 65 C4.68 64.34 3.36 63.68 2 63 Z " fill="#D8D8D8" transform="translate(219,154)"/>
<path d="M0 0 C1.1127832 -0.01836914 1.1127832 -0.01836914 2.24804688 -0.03710938 C4.18763629 -0.04238478 6.1267371 0.06561098 8.0625 0.1875 C11.25918878 3.38418878 10.81614303 7.89879382 11.18554688 12.24609375 C11.60704889 16.36997829 12.00760928 19.25774938 15.0625 22.1875 C16.0525 22.5175 17.0425 22.8475 18.0625 23.1875 C18.0625 23.8475 18.0625 24.5075 18.0625 25.1875 C19.361875 25.166875 20.66125 25.14625 22 25.125 C23.35415633 25.10350546 24.71006083 25.11601801 26.0625 25.1875 C26.3925 25.5175 26.7225 25.8475 27.0625 26.1875 C28.2175 26.3525 29.3725 26.5175 30.5625 26.6875 C34.0625 27.1875 34.0625 27.1875 35.0625 28.1875 C35.20365161 30.85808851 35.10497107 33.51182238 35.0625 36.1875 C26.08329223 36.21062566 17.10409463 36.22841623 8.12486362 36.23931217 C3.95587172 36.24454051 -0.21309987 36.25163726 -4.38208008 36.26293945 C-8.40207686 36.27377008 -12.42205405 36.27977721 -16.44206429 36.28237724 C-17.97912975 36.28423118 -19.51619409 36.28785119 -21.05325127 36.29323006 C-23.19885487 36.30044284 -25.34437655 36.30149084 -27.48999023 36.30102539 C-28.71354721 36.303246 -29.93710419 36.30546661 -31.19773865 36.30775452 C-33.9375 36.1875 -33.9375 36.1875 -34.9375 35.1875 C-35.125 32.25 -35.125 32.25 -34.9375 29.1875 C-32.9375 27.1875 -32.9375 27.1875 -29.3125 27.0625 C-27.641875 27.124375 -27.641875 27.124375 -25.9375 27.1875 C-25.9375 26.5275 -25.9375 25.8675 -25.9375 25.1875 C-22.9675 25.1875 -19.9975 25.1875 -16.9375 25.1875 C-16.9375 24.5275 -16.9375 23.8675 -16.9375 23.1875 C-16.31230469 23.10113281 -15.68710938 23.01476562 -15.04296875 22.92578125 C-12.82867366 22.39773954 -12.82867366 22.39773954 -11.92578125 20.54296875 C-10.16370792 14.89007454 -9.46200273 9.50669439 -9.1484375 3.59375 C-8.69616753 -1.56547777 -4.1514066 0.00358808 0 0 Z " fill="#E6E6E6" transform="translate(220.9375,295.8125)"/>
<path d="M0 0 C1.65 0 3.3 0 5 0 C7.34587231 4.32665853 9.67527568 8.66195997 12 13 C12.42265137 13.78665039 12.84530273 14.57330078 13.28076172 15.38378906 C14.62977717 17.89900257 15.97178089 20.41785588 17.3125 22.9375 C17.74481934 23.7416333 18.17713867 24.5457666 18.62255859 25.37426758 C20.81502954 29.51028075 22.68724091 33.48149773 24 38 C24.99 38 25.98 38 27 38 C27.495 39.98 27.495 39.98 28 42 C26.02 42.495 26.02 42.495 24 43 C23.814375 43.9590625 23.814375 43.9590625 23.625 44.9375 C23.41875 45.618125 23.2125 46.29875 23 47 C19.80256861 48.59871569 16.32940884 48.18421681 12.81640625 48.203125 C11.59944313 48.21167511 11.59944313 48.21167511 10.3578949 48.22039795 C8.64054673 48.22984986 6.92318041 48.23638269 5.20581055 48.24023438 C2.57633951 48.24994887 -0.05235283 48.28097318 -2.68164062 48.3125 C-4.34895368 48.31902918 -6.01627234 48.32427998 -7.68359375 48.328125 C-8.86495155 48.3466452 -8.86495155 48.3466452 -10.07017517 48.36553955 C-15.50308643 48.34332866 -15.50308643 48.34332866 -18.01977539 46.60449219 C-19 45 -19 45 -19 43 C-20.32 42.67 -21.64 42.34 -23 42 C-22.67 40.68 -22.34 39.36 -22 38 C-21.01 38 -20.02 38 -19 38 C-18.74347656 37.32453125 -18.48695313 36.6490625 -18.22265625 35.953125 C-16.78104185 32.47114262 -15.13104784 29.1138964 -13.4375 25.75 C-13.09396484 25.06486328 -12.75042969 24.37972656 -12.39648438 23.67382812 C-8.38637289 15.71840049 -4.20033425 7.85618072 0 0 Z M-1 11 C-2.8332906 14.52365828 -4.66637491 18.04742378 -6.49926758 21.57128906 C-7.12290866 22.77021186 -7.74660624 23.96910527 -8.37036133 25.16796875 C-9.26658725 26.89054777 -10.16259358 28.61324104 -11.05859375 30.3359375 C-11.59798584 31.37282715 -12.13737793 32.4097168 -12.69311523 33.47802734 C-13.47165717 34.98042565 -14.24325325 36.4865065 -15 38 C-10.05 38 -5.1 38 0 38 C1.52459103 34.95081794 1.14622866 31.77949808 1.125 28.4375 C1.12306641 27.71820313 1.12113281 26.99890625 1.11914062 26.2578125 C1.07739151 21.10875457 0.72889234 16.1022464 0 11 C-0.33 11 -0.66 11 -1 11 Z M5 11 C5 19.91 5 28.82 5 38 C9.95 38 14.9 38 20 38 C16.04 29.585 16.04 29.585 12 21 C11.34 21 10.68 21 10 21 C9.87625 19.9171875 9.87625 19.9171875 9.75 18.8125 C9.02808427 15.34766952 9.02808427 15.34766952 5 11 Z " fill="#E9E9E9" transform="translate(151,228)"/>
<path d="M0 0 C2.25 -0.375 2.25 -0.375 5 0 C8.17519331 4.19304762 10.46343249 8.71778267 12.75 13.4375 C13.4452085 14.8457471 14.14186294 16.25328116 14.83984375 17.66015625 C15.37134033 18.73160889 15.37134033 18.73160889 15.91357422 19.82470703 C17.6790539 23.35963377 19.48116062 26.87378404 21.3125 30.375 C21.80024902 31.32910767 21.80024902 31.32910767 22.29785156 32.30249023 C23.96121668 35.45692486 24.96680682 36.97787121 28 39 C28 40.32 28 41.64 28 43 C27.01 43.33 26.02 43.66 25 44 C24.4287439 45.00776489 24.4287439 45.00776489 23.84594727 46.03588867 C22 48 22 48 18.20288086 48.4699707 C16.62347835 48.47609802 15.04388881 48.45993556 13.46484375 48.42578125 C12.21315147 48.42084908 12.21315147 48.42084908 10.93617249 48.41581726 C9.17343338 48.40539844 7.41072859 48.38545177 5.64819336 48.35668945 C2.94430796 48.31261098 0.24130958 48.29525459 -2.46289062 48.28320312 C-4.17449203 48.26977923 -5.88608246 48.25485631 -7.59765625 48.23828125 C-8.40912613 48.23089432 -9.22059601 48.22350739 -10.05665588 48.21589661 C-15.76328088 48.11835956 -15.76328088 48.11835956 -18 47 C-18 45.68 -18 44.36 -18 43 C-19.32 43 -20.64 43 -22 43 C-22 41.35 -22 39.7 -22 38 C-20.68 38 -19.36 38 -18 38 C-17.86271484 37.23623047 -17.86271484 37.23623047 -17.72265625 36.45703125 C-16.70547541 32.99861638 -15.06810447 29.88757569 -13.4375 26.6875 C-13.0861499 25.99052002 -12.7347998 25.29354004 -12.37280273 24.57543945 C-9.51254024 18.9317725 -6.55264992 13.34259968 -3.52709961 7.78588867 C-2.13047869 5.20666524 -0.93015512 2.79046535 0 0 Z M5 10 C5 19.24 5 28.48 5 38 C9.95 38 14.9 38 20 38 C18.46024995 33.38074986 17.14757452 30.28648592 14.6875 26.25 C11.52038977 20.94939711 8.67157493 15.56475515 6 10 C5.67 10 5.34 10 5 10 Z M-1 11 C-5.51331868 19.92584364 -9.93661642 28.85738695 -14 38 C-9.05 38 -4.1 38 1 38 C1 29.09 1 20.18 1 11 C0.34 11 -0.32 11 -1 11 Z " fill="#EAEAEA" transform="translate(286,228)"/>
<path d="M0 0 C5.77477385 4.69304388 10.41002249 9.70181784 14.6875 15.8125 C16.63180503 19.00813282 16.63180503 19.00813282 19 20 C19 20.66 19 21.32 19 22 C19.66 22 20.32 22 21 22 C21 22.66 21 23.32 21 24 C26.96668828 25.83402304 32.93078433 27.53889252 39 29 C40.1171875 32.734375 40.1171875 32.734375 39.0625 35.125 C38.711875 35.74375 38.36125 36.3625 38 37 C38 37.66 38 38.32 38 39 C34.91190305 40.76462683 33.76687864 41 30 41 C30 40.01 30 39.02 30 38 C29.608125 38.495 29.21625 38.99 28.8125 39.5 C26.44908285 41.45593143 24.98564997 41.24207973 22 41 C22 40.01 22 39.02 22 38 C21.01 38.495 21.01 38.495 20 39 C14.3714624 39.44145393 10.94495744 38.42201997 6 36 C6 35.34 6 34.68 6 34 C6.81984375 33.93941406 7.6396875 33.87882812 8.484375 33.81640625 C9.56203125 33.73261719 10.6396875 33.64882813 11.75 33.5625 C12.81734375 33.48128906 13.8846875 33.40007812 14.984375 33.31640625 C17.43679962 33.05909227 19.63921291 32.68187782 22 32 C22 31.01 22 30.02 22 29 C18.02245872 28.26665571 18.02245872 28.26665571 14 28 C13.505 29.485 13.505 29.485 13 31 C8.81298777 33.38116344 4.45138206 33.38481607 -0.25 33.375 C-1.00635742 33.37411377 -1.76271484 33.37322754 -2.54199219 33.37231445 C-8.44711633 33.24722741 -12.94177929 32.14860031 -18 29 C-19.010625 28.46375 -20.02125 27.9275 -21.0625 27.375 C-21.701875 26.92125 -22.34125 26.4675 -23 26 C-23 25.34 -23 24.68 -23 24 C-24.32 23.34 -25.64 22.68 -27 22 C-27 21.67 -27 21.34 -27 21 C-25.96101562 20.95101563 -24.92203125 20.90203125 -23.8515625 20.8515625 C-16.08046683 20.44790554 -8.58427772 19.87783799 -1 18 C-0.855625 16.88625 -0.71125 15.7725 -0.5625 14.625 C0 11 0 11 1 9 C0.34 9 -0.32 9 -1 9 C-2.0326802 6.21176345 -2.04509293 5.1322726 -1.0625 2.25 C-0.5365625 1.13625 -0.5365625 1.13625 0 0 Z M1 12 C1.020625 12.94875 1.04125 13.8975 1.0625 14.875 C1 18 1 18 0 20 C1.6396875 20.7115625 1.6396875 20.7115625 3.3125 21.4375 C3.92738281 21.70433594 4.54226562 21.97117187 5.17578125 22.24609375 C6.75711021 22.89961942 8.37675406 23.45891802 10 24 C10.23245165 21.70116241 10.23245165 21.70116241 7.75 19.6875 C6.8425 18.800625 5.935 17.91375 5 17 C3.64444707 15.35135455 2.30368347 13.68996005 1 12 Z M10 24 C10.66 24.66 11.32 25.32 12 26 C12 25.34 12 24.68 12 24 C11.34 24 10.68 24 10 24 Z M33 30 C34 32 34 32 34 32 Z M27 32 C28 34 28 34 28 34 Z " fill="#C5C5C5" transform="translate(170,320)"/>
<path d="M0 0 C0.33 0 0.66 0 1 0 C1.31364431 2.62486789 1.62611288 5.249864 1.9375 7.875 C2.0303125 8.65496338 2.123125 9.43492676 2.21875 10.23852539 C2.69801263 14.3017106 3.14017522 18.3616666 3.5 22.4375 C3.96666293 27.36715749 4.94088715 32.16715497 6 37 C6.33 37 6.66 37 7 37 C7.08564209 37.79696289 7.17128418 38.59392578 7.25952148 39.41503906 C7.64930066 43.0270103 8.04335185 46.63850302 8.4375 50.25 C8.57220703 51.50425781 8.70691406 52.75851562 8.84570312 54.05078125 C9.04389648 55.85869141 9.04389648 55.85869141 9.24609375 57.703125 C9.36654053 58.81333008 9.4869873 59.92353516 9.61108398 61.06738281 C9.92810151 63.45785017 10.34702623 65.68379115 11 68 C11 66.02 11 64.04 11 62 C11.66 62 12.32 62 13 62 C13.53154742 63.60064843 14.04988353 65.20568874 14.5625 66.8125 C14.85253906 67.70582031 15.14257812 68.59914063 15.44140625 69.51953125 C16 72 16 72 15 75 C14.34 75 13.68 75 13 75 C12.67 75.99 12.34 76.98 12 78 C11.34 78.99 10.68 79.98 10 81 C8.68 80.67 7.36 80.34 6 80 C6.33 81.32 6.66 82.64 7 84 C6.34 84 5.68 84 5 84 C4.67 84.99 4.34 85.98 4 87 C3.49166409 85.75336669 2.99368855 84.50250613 2.5 83.25 C2.2215625 82.55390625 1.943125 81.8578125 1.65625 81.140625 C1 79 1 79 1 75 C1.495 74.505 1.495 74.505 2 74 C1.59007813 73.13117188 1.18015625 72.26234375 0.7578125 71.3671875 C-0.05042969 69.63855469 -0.05042969 69.63855469 -0.875 67.875 C-1.40867187 66.73804688 -1.94234375 65.60109375 -2.4921875 64.4296875 C-5.25101768 58.15442091 -6.60396721 52.17319083 -7.625 45.4375 C-7.7590625 44.60025391 -7.893125 43.76300781 -8.03125 42.90039062 C-8.65196683 38.90056737 -9.18274002 35.06181218 -9 31 C-8.34 31 -7.68 31 -7 31 C-5.68 34.3 -4.36 37.6 -3 41 C-3.02320312 39.44152344 -3.04640625 37.88304687 -3.0703125 36.27734375 C-3.37498622 6.74997245 -3.37498622 6.74997245 0 0 Z M-2 43 C-1 46 -1 46 -1 46 Z M-1 46 C0 49 0 49 0 49 Z M3 48 C4 50 4 50 4 50 Z M6 50 C5.87625 50.969375 5.7525 51.93875 5.625 52.9375 C5.41875 53.948125 5.2125 54.95875 5 56 C4.01 56.495 4.01 56.495 3 57 C4.65 60.3 6.3 63.6 8 67 C9.26237731 63.21286807 8.67558873 60.74348067 8.0625 56.8125 C7.77052734 54.90404297 7.77052734 54.90404297 7.47265625 52.95703125 C7.31667969 51.98121094 7.16070312 51.00539063 7 50 C6.67 50 6.34 50 6 50 Z M9 68 C10 70 10 70 10 70 Z " fill="#C2C2C2" transform="translate(106,211)"/>
<path d="M0 0 C0.8146875 0.00257813 1.629375 0.00515625 2.46875 0.0078125 C3.2834375 0.00523437 4.098125 0.00265625 4.9375 0 C6.96875 0.1328125 6.96875 0.1328125 7.96875 1.1328125 C8.29524862 3.12742226 8.57936125 5.12902408 8.84375 7.1328125 C9.44651845 11.32918523 10.18537354 15.15674463 11.65625 19.1328125 C12.8824778 22.48491263 13.26761791 24.66916475 11.96875 28.1328125 C10.4466541 29.6549084 9.08664918 29.26240771 6.96875 29.265625 C6.164375 29.26691406 5.36 29.26820313 4.53125 29.26953125 C3.685625 29.26566406 2.84 29.26179688 1.96875 29.2578125 C1.123125 29.26167969 0.2775 29.26554687 -0.59375 29.26953125 C-1.398125 29.26824219 -2.2025 29.26695312 -3.03125 29.265625 C-3.77375 29.26449707 -4.51625 29.26336914 -5.28125 29.26220703 C-7.03125 29.1328125 -7.03125 29.1328125 -8.03125 28.1328125 C-8.62962797 22.50805961 -7.21729805 18.89972564 -4.984375 13.7734375 C-3.70004337 10.21520724 -3.4121843 6.82363785 -3.20703125 3.06640625 C-2.96342392 0.38672561 -2.68845391 0.17578353 0 0 Z " fill="#E4E4E4" transform="translate(219.03125,235.8671875)"/>
<path d="M0 0 C1.65 0 3.3 0 5 0 C7.3458719 4.32665778 9.67576825 8.66169581 12 13 C12.42796875 13.79728516 12.8559375 14.59457031 13.296875 15.41601562 C14.66114626 17.96226328 16.01873146 20.51198203 17.375 23.0625 C17.81569824 23.88339111 18.25639648 24.70428223 18.71044922 25.55004883 C19.12311035 26.32888428 19.53577148 27.10771973 19.9609375 27.91015625 C20.51467041 28.94861694 20.51467041 28.94861694 21.07958984 30.00805664 C21.99681802 31.99311358 22.54423251 33.86601655 23 36 C21.02 36.495 21.02 36.495 19 37 C17.82558465 34.89983377 16.66035988 32.79541245 15.5 30.6875 C15.16613281 30.09259766 14.83226562 29.49769531 14.48828125 28.88476562 C12.93174886 26.04171156 12 24.29339012 12 21 C11.34 21 10.68 21 10 21 C8.68 18.36 7.36 15.72 6 13 C5.67 21.25 5.34 29.5 5 38 C10.28 38 15.56 38 21 38 C21 38.33 21 38.66 21 39 C15.39 39 9.78 39 4 39 C3.97706505 34.47926628 3.95714558 29.95873379 3.94506836 25.43798828 C3.94003448 23.89956987 3.93320692 22.36115625 3.92456055 20.82275391 C3.91245361 18.61359474 3.90676231 16.40449874 3.90234375 14.1953125 C3.89718246 13.50567413 3.89202118 12.81603577 3.88670349 12.10549927 C3.88612829 7.22774341 3.88612829 7.22774341 5 5 C4.34 5 3.68 5 3 5 C3 5.99 3 6.98 3 8 C2.34 8 1.68 8 1 8 C1 11.96 1 15.92 1 20 C0.67 20 0.34 20 0 20 C-0.33 17.69 -0.66 15.38 -1 13 C-1.35827881 13.69150146 -1.71655762 14.38300293 -2.08569336 15.09545898 C-3.70101838 18.2104852 -5.31921913 21.32400843 -6.9375 24.4375 C-7.50146484 25.52611328 -8.06542969 26.61472656 -8.64648438 27.73632812 C-9.45375977 29.28803711 -9.45375977 29.28803711 -10.27734375 30.87109375 C-10.77484131 31.82943115 -11.27233887 32.78776855 -11.78491211 33.77514648 C-13 36 -13 36 -14 37 C-7.07 37.495 -7.07 37.495 0 38 C0.33 37.34 0.66 36.68 1 36 C1 36.99 1 37.98 1 39 C-1.7708983 39.02696009 -4.5415345 39.04681952 -7.3125 39.0625 C-8.09818359 39.07087891 -8.88386719 39.07925781 -9.69335938 39.08789062 C-10.45068359 39.09111328 -11.20800781 39.09433594 -11.98828125 39.09765625 C-13.03302612 39.10551147 -13.03302612 39.10551147 -14.09887695 39.11352539 C-16 39 -16 39 -19 38 C-17.39960375 33.78589127 -15.46241204 29.77208556 -13.4375 25.75 C-13.09396484 25.06486328 -12.75042969 24.37972656 -12.39648438 23.67382812 C-8.38637289 15.71840049 -4.20033425 7.85618072 0 0 Z " fill="#BEBEBE" transform="translate(151,228)"/>
<path d="M0 0 C1.48554938 0.08431228 2.9712337 0.16627421 4.45703125 0.24609375 C8.30769794 0.46149503 12.1534972 0.72025434 16 1 C16 1.66 16 2.32 16 3 C8.43071692 10.21866234 0.61580726 13.33401556 -9.6875 13.4375 C-10.41251709 13.44765137 -11.13753418 13.45780273 -11.88452148 13.46826172 C-16.6271769 13.39096836 -19.83513689 12.47268251 -24 10 C-23.62068798 7.47125317 -23.18089992 6.19571307 -21.42578125 4.296875 C-14.40810504 -0.83990832 -8.44612153 -0.60634442 0 0 Z " fill="#D2D2D2" transform="translate(283,340)"/>
<path d="M0 0 C12.52090099 -0.82625235 12.52090099 -0.82625235 17.83642578 3.14404297 C19.67626953 4.83154297 19.67626953 4.83154297 20.89892578 6.14404297 C20.23892578 6.80404297 19.57892578 7.46404297 18.89892578 8.14404297 C19.88892578 8.47404297 20.87892578 8.80404297 21.89892578 9.14404297 C21.89892578 9.80404297 21.89892578 10.46404297 21.89892578 11.14404297 C17.53645926 13.2909261 13.42652035 13.52901817 8.64892578 13.51904297 C7.89256836 13.51815674 7.13621094 13.51727051 6.35693359 13.51635742 C0.45180945 13.39127038 -4.04285351 12.29264328 -9.10107422 9.14404297 C-10.11169922 8.60779297 -11.12232422 8.07154297 -12.16357422 7.51904297 C-13.12263672 6.83841797 -13.12263672 6.83841797 -14.10107422 6.14404297 C-14.10107422 5.48404297 -14.10107422 4.82404297 -14.10107422 4.14404297 C-15.42107422 3.48404297 -16.74107422 2.82404297 -18.10107422 2.14404297 C-18.10107422 1.81404297 -18.10107422 1.48404297 -18.10107422 1.14404297 C-13.51812195 0.8067955 -8.93553705 0.51307116 -4.34667969 0.26855469 C-2.89725002 0.1881884 -1.44825655 0.09928786 0 0 Z " fill="#CACACA" transform="translate(161.10107421875,339.85595703125)"/>
<path d="M0 0 C2.14576637 -0.02685938 4.29162645 -0.04633088 6.4375 -0.0625 C7.63246094 -0.07410156 8.82742187 -0.08570313 10.05859375 -0.09765625 C13 0 13 0 14 1 C14.26543872 3.03503018 14.46189706 5.07922313 14.625 7.125 C14.72039062 8.24132812 14.81578125 9.35765625 14.9140625 10.5078125 C15 14 15 14 14 21 C9.05 21 4.1 21 -1 21 C-2.30980716 13.14115706 -2.48358345 7.45075035 0 0 Z " fill="#DADADA" transform="translate(215,266)"/>
<path d="M0 0 C9.24 0 18.48 0 28 0 C29.71201309 3.99469722 31.40895202 7.96118589 33 12 C26.97679474 12.33325111 22.36474817 12.01819423 16.796875 9.6796875 C11.68193179 7.74490464 7.66565948 9.38464881 2.90234375 11.33203125 C0.53871126 12.16197202 -1.51667947 12.2328113 -4 12 C-4 11.34 -4 10.68 -4 10 C-3.34 10 -2.68 10 -2 10 C-1.34 6.7 -0.68 3.4 0 0 Z M24 3 C25 6 25 6 25 6 Z " fill="#D3D3D3" transform="translate(210,349)"/>
<path d="M0 0 C0.66 0 1.32 0 2 0 C2.18175781 0.72445313 2.36351562 1.44890625 2.55078125 2.1953125 C4.48884931 9.9127947 4.48884931 9.9127947 8 17 C8.9590625 17.4640625 8.9590625 17.4640625 9.9375 17.9375 C13.3636552 19.70248904 14.35118301 22.58023143 16 26 C15.67 26.66 15.34 27.32 15 28 C13.35 26.68 11.7 25.36 10 24 C9.82984375 24.62648438 9.6596875 25.25296875 9.484375 25.8984375 C9.24203125 26.71570313 8.9996875 27.53296875 8.75 28.375 C8.51796875 29.18710937 8.2859375 29.99921875 8.046875 30.8359375 C6.7785108 33.45785454 5.67576692 33.99382318 3 35 C-2.94298036 25.28509114 -4.22694645 15.13473225 -2 4 C-0.9375 1.5 -0.9375 1.5 0 0 Z M4 23 C5 27 5 27 5 27 Z " fill="#D2D2D2" transform="translate(130,277)"/>
<path d="M0 0 C6.70212766 1.93617021 6.70212766 1.93617021 9 5 C9 5.66 9 6.32 9 7 C9.99 7.33 10.98 7.66 12 8 C12 8.66 12 9.32 12 10 C12.99 10 13.98 10 15 10 C15 10.66 15 11.32 15 12 C15.66 12 16.32 12 17 12 C17 12.66 17 13.32 17 14 C17.66 14 18.32 14 19 14 C21.10428384 19.12919186 21.21755666 23.5610835 21 29 C17.52761491 28.22093924 14.94429496 27.04464928 12 25 C12 24.34 12 23.68 12 23 C11.34 23 10.68 23 10 23 C8.68 20.69 7.36 18.38 6 16 C5.34 16.33 4.68 16.66 4 17 C3.80543295 15.04235617 3.61955753 13.08384679 3.4375 11.125 C3.33308594 10.03445313 3.22867188 8.94390625 3.12109375 7.8203125 C3 5 3 5 4 3 C2.68 2.67 1.36 2.34 0 2 C0 1.34 0 0.68 0 0 Z " fill="#DCDCDC" transform="translate(149,309)"/>
<path d="M0 0 C0.66 0 1.32 0 2 0 C2.0292483 3.20831391 2.04688189 6.41659307 2.0625 9.625 C2.07087891 10.52863281 2.07925781 11.43226563 2.08789062 12.36328125 C2.10491895 17.02904289 1.96829423 21.41013285 1 26 C0.34 26 -0.32 26 -1 26 C-1.04898437 26.74765625 -1.09796875 27.4953125 -1.1484375 28.265625 C-1.22320312 29.25046875 -1.29796875 30.2353125 -1.375 31.25 C-1.44460938 32.22453125 -1.51421875 33.1990625 -1.5859375 34.203125 C-1.98465249 36.89633189 -2.63507063 38.66963279 -4 41 C-4.66 41 -5.32 41 -6 41 C-6.33 40.34 -6.66 39.68 -7 39 C-7.99 41.97 -8.98 44.94 -10 48 C-10.33 48 -10.66 48 -11 48 C-11.98745076 37.485478 -9.47270642 29.70334319 -5.77392578 20.10449219 C-3.3704086 13.56874515 -1.65294983 6.75909189 0 0 Z " fill="#D4D4D4" transform="translate(328,246)"/>
<path d="M0 0 C1.98 0 3.96 0 6 0 C4.06875032 6.01855061 0.36025711 8.06736346 -5 11 C-10.1950088 13.04089631 -15.45535418 13.69692406 -21 13 C-23.26953125 11.984375 -23.26953125 11.984375 -25 11 C-24.6821697 8.0335839 -23.9895397 6.98923205 -21.875 4.8125 C-15.44279766 0.75741591 -7.35812936 1.89125917 0 2 C0 1.34 0 0.68 0 0 Z " fill="#C0C0C0" transform="translate(305,327)"/>
<path d="M0 0 C5.77477385 4.69304388 10.41002249 9.70181784 14.6875 15.8125 C16.63180503 19.00813282 16.63180503 19.00813282 19 20 C18.67 20.66 18.34 21.32 18 22 C17.34 21.67 16.68 21.34 16 21 C16 22.98 16 24.96 16 27 C15.34 27.33 14.68 27.66 14 28 C13.67 28.66 13.34 29.32 13 30 C11.35 29.34 9.7 28.68 8 28 C9.32 27.67 10.64 27.34 12 27 C12 26.01 12 25.02 12 24 C11.34 24 10.68 24 10 24 C10 23.34 10 22.68 10 22 C9.13375 21.690625 9.13375 21.690625 8.25 21.375 C5.18589456 19.50249112 3.84460032 17.03041481 2 14 C1.855625 14.804375 1.71125 15.60875 1.5625 16.4375 C1 19 1 19 0 20 C-1.66617115 20.04063832 -3.33388095 20.042721 -5 20 C-4.360625 19.814375 -3.72125 19.62875 -3.0625 19.4375 C-0.59305028 18.07122743 -0.59305028 18.07122743 -0.3125 14.5 C-0.1578125 12.7675 -0.1578125 12.7675 0 11 C0.33 10.34 0.66 9.68 1 9 C0.34 9 -0.32 9 -1 9 C-2.0326802 6.21176345 -2.04509293 5.1322726 -1.0625 2.25 C-0.711875 1.5075 -0.36125 0.765 0 0 Z " fill="#B4B4B4" transform="translate(170,320)"/>
<path d="M0 0 C0.66 0 1.32 0 2 0 C5.76520205 10.93701547 6.11490497 19.34394799 1 30 C-1.140625 31.85546875 -1.140625 31.85546875 -3 33 C-7.01803796 27.19735476 -6.84775105 21.85074499 -6 15 C-4.66284078 10.81598568 -2.91109622 6.94751022 -1 3 C-0.67 2.01 -0.34 1.02 0 0 Z " fill="#B8B8B8" transform="translate(311,278)"/>
<path d="M0 0 C0.66 0 1.32 0 2 0 C3.71159416 7.8160227 4.25821386 15.1997923 4.125 23.1875 C4.11597656 24.23486328 4.10695313 25.28222656 4.09765625 26.36132812 C4.07440075 28.90780514 4.04172569 31.45377031 4 34 C3.01 34.495 3.01 34.495 2 35 C1.34227572 38.02934491 1.34227572 38.02934491 1 41 C0.34 41 -0.32 41 -1 41 C-1.66 45.62 -2.32 50.24 -3 55 C-3.33 55 -3.66 55 -4 55 C-4.09436639 49.5144092 -4.14519651 44.02939538 -4.125 38.54296875 C-4.12242187 37.61508545 -4.11984375 36.68720215 -4.1171875 35.73120117 C-3.95630828 31.98170982 -3.31953568 28.41979412 -2.54394531 24.75268555 C-1.99619837 21.98076152 -1.67494384 19.27034572 -1.421875 16.45703125 C-1.33019043 15.45027344 -1.23850586 14.44351563 -1.14404297 13.40625 C-0.75547527 8.93807409 -0.36791022 4.46993174 0 0 Z " fill="#FCFCFC" transform="translate(335,211)"/>
<path d="M0 0 C0.66 0 1.32 0 2 0 C2.13535156 0.80179688 2.27070312 1.60359375 2.41015625 2.4296875 C3.79936674 9.76671534 5.77577208 16.15180331 8.6875 23 C12.02212532 30.93861439 12.87735094 37.33790029 12 46 C11.67 44.68 11.34 43.36 11 42 C10.34 42 9.68 42 9 42 C9.33 44.31 9.66 46.62 10 49 C9.67 48.34 9.34 47.68 9 47 C8.34 47 7.68 47 7 47 C6.67 44.69 6.34 42.38 6 40 C6.99 40 7.98 40 9 40 C8.7834375 39.39671875 8.566875 38.7934375 8.34375 38.171875 C8.0653125 37.37265625 7.786875 36.5734375 7.5 35.75 C7.2215625 34.96109375 6.943125 34.1721875 6.65625 33.359375 C6 31 6 31 6 27 C5.34 27 4.68 27 4 27 C4.33 29.31 4.66 31.62 5 34 C4.34 33.67 3.68 33.34 3 33 C2.34114913 30.08957162 1.81594718 27.25768904 1.375 24.3125 C1.24311279 23.46067139 1.11122559 22.60884277 0.9753418 21.73120117 C-0.08156933 14.43803615 -0.32462515 7.37019314 0 0 Z " fill="#E3E3E3" transform="translate(113,246)"/>
<path d="M0 0 C1.29315061 0.95632999 2.58446853 1.91513851 3.875 2.875 C4.59429687 3.40867187 5.31359375 3.94234375 6.0546875 4.4921875 C9.86572756 7.44612618 9.86572756 7.44612618 10.5 10.0625 C10.665 10.701875 10.83 11.34125 11 12 C11.66 12.33 12.32 12.66 13 13 C14.24024621 17.96098482 14.10151176 22.92441192 14 28 C11 28 11 28 8.5 25.8125 C6.22069827 23.24828555 4.58463982 21.02522147 3 18 C2.1646875 16.453125 2.1646875 16.453125 1.3125 14.875 C-0.71670895 10.10847273 -0.24798998 5.07920218 0 0 Z " fill="#E0E0E0" transform="translate(139,299)"/>
<path d="M0 0 C0.66 0 1.32 0 2 0 C2.66 0.99 3.32 1.98 4 3 C5.65 2.67 7.3 2.34 9 2 C9.33 3.32 9.66 4.64 10 6 C10 4.02 10 2.04 10 0 C10.66 0 11.32 0 12 0 C12.53154742 1.60064843 13.04988353 3.20568874 13.5625 4.8125 C13.85253906 5.70582031 14.14257812 6.59914063 14.44140625 7.51953125 C15 10 15 10 14 13 C13.34 13 12.68 13 12 13 C11.67 13.99 11.34 14.98 11 16 C10.34 16.99 9.68 17.98 9 19 C7.68 18.67 6.36 18.34 5 18 C5.33 19.32 5.66 20.64 6 22 C5.34 22 4.68 22 4 22 C3.67 22.99 3.34 23.98 3 25 C2.49166409 23.75336669 1.99368855 22.50250613 1.5 21.25 C1.2215625 20.55390625 0.943125 19.8578125 0.65625 19.140625 C0 17 0 17 0 13 C0.33 12.67 0.66 12.34 1 12 C0.68554487 9.66404762 0.3496418 7.33094534 0 5 C-0.03545297 3.33371045 -0.05048188 1.66590197 0 0 Z M8 6 C9 8 9 8 9 8 Z " fill="#BBBBBB" transform="translate(107,273)"/>
<path d="M0 0 C0.33 0 0.66 0 1 0 C2.52007047 11.65879293 3.47798129 23.25457893 4 35 C3.01 35.495 3.01 35.495 2 36 C2 34.35 2 32.7 2 31 C1.34 31 0.68 31 0 31 C0.2165625 32.051875 0.2165625 32.051875 0.4375 33.125 C1.56097355 38.86719815 2.2206715 44.15220515 2 50 C-5.11071044 41.81781264 -3.61084577 27.27973112 -3 17 C-1.82077562 3.64155125 -1.82077562 3.64155125 0 0 Z " fill="#CFCFCF" transform="translate(106,211)"/>
<path d="M0 0 C0.33 0.66 0.66 1.32 1 2 C0.57589844 2.46148437 0.15179688 2.92296875 -0.28515625 3.3984375 C-4.99544427 8.63669187 -9.06421026 14.16211127 -13 20 C-13.33 19.01 -13.66 18.02 -14 17 C-15.32 17.33 -16.64 17.66 -18 18 C-18.33 17.34 -18.66 16.68 -19 16 C-19.99 18.475 -19.99 18.475 -21 21 C-21.66 21 -22.32 21 -23 21 C-23.268125 21.639375 -23.53625 22.27875 -23.8125 22.9375 C-25 25 -25 25 -28 26 C-27.85437243 19.15550444 -24.74624157 14.83393195 -20 10 C-19.34 10 -18.68 10 -18 10 C-18 9.34 -18 8.68 -18 8 C-14.53846154 5 -14.53846154 5 -12 5 C-11.67 5.99 -11.34 6.98 -11 8 C-10.113125 7.236875 -9.22625 6.47375 -8.3125 5.6875 C-5.68511182 3.49072889 -2.99628247 1.67439315 0 0 Z M-13 9 C-12 12 -12 12 -12 12 Z " fill="#C5C5C5" transform="translate(286,315)"/>
<path d="M0 0 C0.99 0.33 1.98 0.66 3 1 C2.67 1.99 2.34 2.98 2 4 C1.77820215 5.89212737 1.59385985 7.78884472 1.4375 9.6875 C1.35371094 10.68136719 1.26992188 11.67523438 1.18359375 12.69921875 C1.09271484 13.83810547 1.09271484 13.83810547 1 15 C0.34 14.67 -0.32 14.34 -1 14 C-1.495 15.010625 -1.99 16.02125 -2.5 17.0625 C-5.10209848 21.68216759 -8.90254216 24.7280009 -13 28 C-12.34 28.66 -11.68 29.32 -11 30 C-12.98 30 -14.96 30 -17 30 C-17.33 28.02 -17.66 26.04 -18 24 C-17.01 23.67 -16.02 23.34 -15 23 C-13.79117904 20.99983534 -13.79117904 20.99983534 -13 19 C-12.34 19 -11.68 19 -11 19 C-10.86271484 18.14148438 -10.86271484 18.14148438 -10.72265625 17.265625 C-9.82311542 14.44544295 -8.43047759 12.92415738 -6.4375 10.75 C-5.79683594 10.04359375 -5.15617187 9.3371875 -4.49609375 8.609375 C-4.00238281 8.07828125 -3.50867188 7.5471875 -3 7 C-4.32 7.33 -5.64 7.66 -7 8 C-6.02133662 6.85373678 -5.04205413 5.70800212 -4.0625 4.5625 C-3.51722656 3.92441406 -2.97195313 3.28632813 -2.41015625 2.62890625 C-1.63204305 1.73008851 -0.84063472 0.84063472 0 0 Z " fill="#C3C3C3" transform="translate(289,310)"/>
<path d="M0 0 C7.44230094 0.54701632 14.68160944 1.54198409 22 3 C22 3.66 22 4.32 22 5 C20.35 5.33 18.7 5.66 17 6 C18.17369141 6.29003906 18.17369141 6.29003906 19.37109375 6.5859375 C20.88896484 6.97652344 20.88896484 6.97652344 22.4375 7.375 C23.44683594 7.63023437 24.45617187 7.88546875 25.49609375 8.1484375 C28 9 28 9 29 11 C28.67 11.66 28.34 12.32 28 13 C19.82015862 13.53638304 12.63438792 12.01429937 5.67578125 7.48828125 C5.12277344 6.99714844 4.56976563 6.50601562 4 6 C4 5.34 4 4.68 4 4 C3.01 3.67 2.02 3.34 1 3 C0.67 2.01 0.34 1.02 0 0 Z " fill="#D1D1D1" transform="translate(131,327)"/>
<path d="M0 0 C0.33 0.66 0.66 1.32 1 2 C1.99 2 2.98 2 4 2 C4 12.89 4 23.78 4 35 C-1.94 35 -7.88 35 -14 35 C-13.34 34.34 -12.68 33.68 -12 33 C-9.39732338 33.01754613 -6.9560365 33.13739458 -4.375 33.375 C-1.94125 33.58125 0.4925 33.7875 3 34 C3 25.09 3 16.18 3 7 C2.34 7 1.68 7 1 7 C0.87093262 7.58265625 0.74186523 8.1653125 0.60888672 8.765625 C0.01795048 10.93412878 -0.74194061 12.74224677 -1.7421875 14.75 C-2.08636719 15.4409375 -2.43054688 16.131875 -2.78515625 16.84375 C-3.14480469 17.5553125 -3.50445312 18.266875 -3.875 19 C-4.22691406 19.7115625 -4.57882812 20.423125 -4.94140625 21.15625 C-6.71135915 24.68299629 -8.46844697 27.9430303 -11 31 C-11 29.68 -11 28.36 -11 27 C-11.99 27 -12.98 27 -14 27 C-13.71801758 26.46632813 -13.43603516 25.93265625 -13.14550781 25.3828125 C-11.84610285 22.92235036 -10.5480446 20.46118007 -9.25 18 C-8.8065625 17.16082031 -8.363125 16.32164062 -7.90625 15.45703125 C-5.20630754 10.33508159 -2.57014546 5.18833101 0 0 Z " fill="#B5B6B5" transform="translate(284,232)"/>
<path d="M0 0 C21.53191489 -0.57446809 21.53191489 -0.57446809 32 3 C32 3.66 32 4.32 32 5 C27.63753551 7.14688213 23.52761325 7.38497962 18.75 7.375 C17.99654297 7.37411377 17.24308594 7.37322754 16.46679688 7.37231445 C10.85225054 7.25302351 5.54429837 6.61368408 1 3 C0.67 2.01 0.34 1.02 0 0 Z " fill="#DEDEDE" transform="translate(151,346)"/>
<path d="M0 0 C0.99 0 1.98 0 3 0 C3 0.66 3 1.32 3 2 C3.99 2 4.98 2 6 2 C5.690625 2.556875 5.38125 3.11375 5.0625 3.6875 C3.88455424 5.98464929 3.88455424 5.98464929 3.5625 8.625 C3 11 3 11 0 13 C0.66 13.33 1.32 13.66 2 14 C1.67 14.66 1.34 15.32 1 16 C0.34 15.67 -0.32 15.34 -1 15 C-1 15.66 -1 16.32 -1 17 C-5.27113698 19.18326108 -9.50202887 21.31326082 -14 23 C-13.67 23.99 -13.34 24.98 -13 26 C-11.35 26.33 -9.7 26.66 -8 27 C-8 27.33 -8 27.66 -8 28 C-16.415 28.495 -16.415 28.495 -25 29 C-21 27 -21 27 -17 27 C-16.855625 26.2575 -16.71125 25.515 -16.5625 24.75 C-16.2840625 23.38875 -16.2840625 23.38875 -16 22 C-15.90976562 21.34902344 -15.81953125 20.69804687 -15.7265625 20.02734375 C-14.25100897 15.91007343 -9.69620245 13.97008811 -6 12 C-2.4375 11.125 -2.4375 11.125 0 11 C0 7.37 0 3.74 0 0 Z " fill="#C5C5C5" transform="translate(313,301)"/>
<path d="M0 0 C1.22589844 0.29197266 1.22589844 0.29197266 2.4765625 0.58984375 C3.41628906 0.82380859 3.41628906 0.82380859 4.375 1.0625 C5.4921875 4.796875 5.4921875 4.796875 4.4375 7.1875 C3.9115625 8.115625 3.9115625 8.115625 3.375 9.0625 C3.375 9.7225 3.375 10.3825 3.375 11.0625 C0.28690305 12.82712683 -0.85812136 13.0625 -4.625 13.0625 C-4.625 12.0725 -4.625 11.0825 -4.625 10.0625 C-5.016875 10.5575 -5.40875 11.0525 -5.8125 11.5625 C-8.17591715 13.51843143 -9.63935003 13.30457973 -12.625 13.0625 C-11.64272423 10.87126943 -10.88091309 9.28770352 -9.0625 7.6875 C-7.02055349 5.37921264 -7.07988938 3.05177307 -6.625 0.0625 C-3.99249612 -1.25375194 -2.82320944 -0.68563658 0 0 Z M-1.625 2.0625 C-0.625 4.0625 -0.625 4.0625 -0.625 4.0625 Z " fill="#AEAEAE" transform="translate(204.625,347.9375)"/>
<path d="M0 0 C-0.80899719 5.88827066 -3.73268774 9.04694717 -8 13 C-13.54694352 17.01121949 -19.28520603 17.72480353 -26 18 C-25.34 17.67 -24.68 17.34 -24 17 C-24 16.34 -24 15.68 -24 15 C-19.79646933 11.71919558 -16.08646583 10.2207518 -11 9 C-11 8.34 -11 7.68 -11 7 C-10.67 6.67 -10.34 6.34 -10 6 C-10.33 5.34 -10.66 4.68 -11 4 C-9.5437455 3.32880451 -8.08492133 2.66318193 -6.625 2 C-5.81289063 1.62875 -5.00078125 1.2575 -4.1640625 0.875 C-2 0 -2 0 0 0 Z " fill="#D5D5D5" transform="translate(323,309)"/>
<path d="M0 0 C3.00617269 3.00617269 2.59585316 5.82381598 3 10 C3.33 10 3.66 10 4 10 C4.33921452 13.18690233 4.67029417 16.37460104 5 19.5625 C5.14308594 20.90538086 5.14308594 20.90538086 5.2890625 22.27539062 C5.79567965 27.21490788 6.10897382 32.03488014 6 37 C5.67 37 5.34 37 5 37 C4.34 33.7 3.68 30.4 3 27 C0.7226499 29.81509993 0.7226499 29.81509993 1 33 C-0.32 32.34 -1.64 31.68 -3 31 C-2.83757812 30.28070313 -2.67515625 29.56140625 -2.5078125 28.8203125 C-1.04147648 20.67650783 -2.11564243 12.16451543 -3 4 C-2.34 4 -1.68 4 -1 4 C-0.67 5.32 -0.34 6.64 0 8 C0 5.36 0 2.72 0 0 Z M0 21 C1 23 1 23 1 23 Z " fill="#999999" transform="translate(109,238)"/>
<path d="M0 0 C4.14536674 0.4710644 6.9919792 0.9919792 10 4 C10 4.99 10 5.98 10 7 C10.59167969 7.30292969 11.18335938 7.60585938 11.79296875 7.91796875 C16.61889957 10.47657808 20.37448622 12.90667799 24 17 C17.22613615 16.72740991 12.65275661 15.80946641 7 12 C7 11.34 7 10.68 7 10 C6.01 10 5.02 10 4 10 C0 3.375 0 3.375 0 0 Z " fill="#D1D1D1" transform="translate(121,310)"/>
<path d="M0 0 C3.94974498 3.41838915 5.89643268 7.25686621 8.125 11.875 C8.47175781 12.56980469 8.81851563 13.26460937 9.17578125 13.98046875 C11.10869404 17.91294649 12.72161108 21.79581377 14 26 C12.68 26.33 11.36 26.66 10 27 C8.82558465 24.89983377 7.66035988 22.79541245 6.5 20.6875 C6.16613281 20.09259766 5.83226562 19.49769531 5.48828125 18.88476562 C3.93174886 16.04171156 3 14.29339012 3 11 C2.34 11 1.68 11 1 11 C0.32845067 9.71086513 -0.33708859 8.41859796 -1 7.125 C-1.37125 6.40570313 -1.7425 5.68640625 -2.125 4.9453125 C-3 3 -3 3 -3 1 C-2.01 0.67 -1.02 0.34 0 0 Z " fill="#A5A5A5" transform="translate(160,238)"/>
<path d="M0 0 C1.65 0 3.3 0 5 0 C9 6.5 9 6.5 9 11 C7.68 11 6.36 11 5 11 C5 19.91 5 28.82 5 38 C10.28 38 15.56 38 21 38 C21 38.33 21 38.66 21 39 C15.39 39 9.78 39 4 39 C3.97706505 34.47926628 3.95714558 29.95873379 3.94506836 25.43798828 C3.94003448 23.89956987 3.93320692 22.36115625 3.92456055 20.82275391 C3.91245361 18.61359474 3.90676231 16.40449874 3.90234375 14.1953125 C3.89718246 13.50567413 3.89202118 12.81603577 3.88670349 12.10549927 C3.88612829 7.22774341 3.88612829 7.22774341 5 5 C4.34 5 3.68 5 3 5 C3 5.99 3 6.98 3 8 C1.02 8 -0.96 8 -3 8 C-1.125 2.25 -1.125 2.25 0 0 Z " fill="#828282" transform="translate(151,228)"/>
<path d="M0 0 C0.33 0.99 0.66 1.98 1 3 C1.99 2.67 2.98 2.34 4 2 C3.34 3.98 2.68 5.96 2 8 C1.34 8 0.68 8 0 8 C-0.38285156 8.89525391 -0.38285156 8.89525391 -0.7734375 9.80859375 C-4.28013696 16.07374788 -11.48287938 18.90521123 -18 21 C-18 20.34 -18 19.68 -18 19 C-16.01739574 17.31267723 -14.0167658 15.64633943 -12 14 C-11.67 13.34 -11.34 12.68 -11 12 C-11.66 11.67 -12.32 11.34 -13 11 C-11.35 9.35 -9.7 7.7 -8 6 C-8 7.98 -8 9.96 -8 12 C-7.34 11.01 -6.68 10.02 -6 9 C-5.34 9 -4.68 9 -4 9 C-3.67 8.01 -3.34 7.02 -3 6 C-2.01577854 3.99218823 -1.01765927 1.99107248 0 0 Z " fill="#A9A9A9" transform="translate(267,330)"/>
<path d="M0 0 C0.99 0.495 0.99 0.495 2 1 C2 1.66 2 2.32 2 3 C2.99 3.33 3.98 3.66 5 4 C5 4.66 5 5.32 5 6 C5.99 6 6.98 6 8 6 C8 6.66 8 7.32 8 8 C8.66 8 9.32 8 10 8 C10 8.66 10 9.32 10 10 C10.66 10 11.32 10 12 10 C13.42258812 13.82320557 14.24042276 16.91281305 14 21 C13.01 21 12.02 21 11 21 C9.68359375 19.28515625 9.68359375 19.28515625 8.4375 17.0625 C6.79661289 13.93912598 6.79661289 13.93912598 4 12 C4 11.34 4 10.68 4 10 C3.34 10 2.68 10 2 10 C1.67 9.01 1.34 8.02 1 7 C1.33 6.34 1.66 5.68 2 5 C1.34 5 0.68 5 0 5 C0 3.35 0 1.7 0 0 Z " fill="#BCBCBC" transform="translate(156,313)"/>
<path d="M0 0 C0.66 0 1.32 0 2 0 C1.67 10.23 1.34 20.46 1 31 C5.95 31 10.9 31 16 31 C15.34 29.88625 14.68 28.7725 14 27.625 C12 24.25 12 24.25 12 22 C12.66 22 13.32 22 14 22 C14.33 20.68 14.66 19.36 15 18 C15.40992188 18.84304687 15.81984375 19.68609375 16.2421875 20.5546875 C16.78101563 21.65039062 17.31984375 22.74609375 17.875 23.875 C18.40867187 24.96554687 18.94234375 26.05609375 19.4921875 27.1796875 C20.84535937 30.03882547 20.84535937 30.03882547 23 32 C15.41 32 7.82 32 0 32 C0 21.44 0 10.88 0 0 Z " fill="#6F6F6F" transform="translate(290,235)"/>
<path d="M0 0 C0.66 1.32 1.32 2.64 2 4 C2.66 3.67 3.32 3.34 4 3 C3.67 5.97 3.34 8.94 3 12 C3.66 12 4.32 12 5 12 C4.34 13.98 3.68 15.96 3 18 C2.34 18 1.68 18 1 18 C0.67 17.34 0.34 16.68 0 16 C-0.99 18.97 -1.98 21.94 -3 25 C-3.33 25 -3.66 25 -4 25 C-4.53344824 15.81283582 -3.44660395 8.53957675 0 0 Z " fill="#E5E5E5" transform="translate(321,269)"/>
<path d="M0 0 C0.33 0.66 0.66 1.32 1 2 C1.66 2 2.32 2 3 2 C3.54853015 9.13089193 2.10484799 15.53156669 -1 22 C-3.140625 23.85546875 -3.140625 23.85546875 -5 25 C-5.33 24.01 -5.66 23.02 -6 22 C-5.34 22 -4.68 22 -4 22 C-4.04640625 21.41734375 -4.0928125 20.8346875 -4.140625 20.234375 C-4.4665275 12.83173253 -2.64369374 6.86888283 0 0 Z " fill="#D7D7D7" transform="translate(313,286)"/>
<path d="M0 0 C1.75686525 5.27059576 -1.70843264 10.17430383 -4 15 C-5.89545888 18.40786336 -8.08822186 21.37939968 -11 24 C-11.66 23.67 -12.32 23.34 -13 23 C-12.58427734 22.22076172 -12.58427734 22.22076172 -12.16015625 21.42578125 C-10.16806492 17.59047375 -8.71527447 14.29164682 -8 10 C-6.9375 7.6875 -6.9375 7.6875 -6 6 C-5.34 6 -4.68 6 -4 6 C-4.33 4.68 -4.66 3.36 -5 2 C-3.35 1.34 -1.7 0.68 0 0 Z " fill="#D3D3D3" transform="translate(341,265)"/>
<path d="M0 0 C0.33 0 0.66 0 1 0 C1.39755352 21.00917431 1.39755352 21.00917431 -1 30 C-1.66 30 -2.32 30 -3 30 C-2.6596875 31.5778125 -2.6596875 31.5778125 -2.3125 33.1875 C-1.96819556 37.38801417 -2.51227742 38.7162062 -5 42 C-5.99 41.34 -6.98 40.68 -8 40 C-6.515 33.07 -6.515 33.07 -5 26 C-4.34 26 -3.68 26 -3 26 C-3 23.69 -3 21.38 -3 19 C-2.34 19 -1.68 19 -1 19 C-0.67 12.73 -0.34 6.46 0 0 Z " fill="#979797" transform="translate(339,226)"/>
<path d="M0 0 C3.00617269 3.00617269 2.59585316 5.82381598 3 10 C4.19625 10.0825 5.3925 10.165 6.625 10.25 C11.85671958 10.8900508 15.30291755 13.30291755 19 17 C18.625 19.125 18.625 19.125 18 21 C16 20 16 20 13 18 C11.28616279 17.41162754 9.55480159 16.87280046 7.8125 16.375 C6.91144531 16.11460937 6.01039063 15.85421875 5.08203125 15.5859375 C4.39496094 15.39257812 3.70789063 15.19921875 3 15 C3 14.67 3 14.34 3 14 C5.31 14 7.62 14 10 14 C10 13.34 10 12.68 10 12 C6.7 11.67 3.4 11.34 0 11 C0.33 10.01 0.66 9.02 1 8 C-0.65 6.35 -2.3 4.7 -4 3 C-2.68 3.33 -1.36 3.66 0 4 C-0.33 3.01 -0.66 2.02 -1 1 C-0.67 0.67 -0.34 0.34 0 0 Z " fill="#A6A6A6" transform="translate(143,318)"/>
<path d="M0 0 C3.36841106 1.68420553 4.43936089 5.36710718 6.0625 8.625 C6.42666016 9.32496094 6.79082031 10.02492187 7.16601562 10.74609375 C9.41436822 15.22617527 10.57358888 19.00114965 11 24 C10.01 24 9.02 24 8 24 C6.48987869 21.23456804 4.99369852 18.46183193 3.5 15.6875 C3.07074219 14.90181641 2.64148438 14.11613281 2.19921875 13.30664062 C1.79316406 12.54931641 1.38710938 11.79199219 0.96875 11.01171875 C0.59169922 10.31522217 0.21464844 9.61872559 -0.17382812 8.90112305 C-1 7 -1 7 -1 4 C-0.34 4 0.32 4 1 4 C0.67 2.68 0.34 1.36 0 0 Z " fill="#B5B5B5" transform="translate(293,233)"/>
<path d="M0 0 C1.37562854 1.28965176 2.70766393 2.62689293 4 4 C4 4.66 4 5.32 4 6 C5.32 6.66 6.64 7.32 8 8 C7.67 6.35 7.34 4.7 7 3 C9.31 4.98 11.62 6.96 14 9 C13.67 9.66 13.34 10.32 13 11 C12.34 10.67 11.68 10.34 11 10 C11 11.98 11 13.96 11 16 C10.34 16.33 9.68 16.66 9 17 C8.67 17.66 8.34 18.32 8 19 C5.525 18.01 5.525 18.01 3 17 C4.32 16.67 5.64 16.34 7 16 C7 15.01 7 14.02 7 13 C6.34 13 5.68 13 5 13 C5 12.34 5 11.68 5 11 C4.38125 10.7525 3.7625 10.505 3.125 10.25 C0.64931313 8.79371361 0.04874998 7.62187494 -1 5 C-0.34 5 0.32 5 1 5 C0.67 3.35 0.34 1.7 0 0 Z " fill="#9C9C9C" transform="translate(175,331)"/>
<path d="M0 0 C0.72904086 1.64034193 1.38655243 3.31301918 2 5 C3.29788956 7.02318078 4.62464661 9.02866014 6 11 C3.8125 11.8125 3.8125 11.8125 1 12 C-1.625 9.75 -1.625 9.75 -4 7 C-4.598125 6.484375 -5.19625 5.96875 -5.8125 5.4375 C-7 4 -7 4 -7 0 C-7.66 -0.33 -8.32 -0.66 -9 -1 C-5.29254447 -2.02984876 -3.15374871 -2.39249902 0 0 Z " fill="#8C8C8C" transform="translate(245,349)"/>
<path d="M0 0 C0.66 1.32 1.32 2.64 2 4 C2.66 4 3.32 4 4 4 C3.625 6.4375 3.625 6.4375 3 9 C2.01 9.495 2.01 9.495 1 10 C1.66 10.33 2.32 10.66 3 11 C3 13.64 3 16.28 3 19 C2.34 19 1.68 19 1 19 C0.34 23.62 -0.32 28.24 -1 33 C-1.33 33 -1.66 33 -2 33 C-2.41277905 9.00483611 -2.41277905 9.00483611 0 0 Z " fill="#C1C1C1" transform="translate(333,233)"/>
<path d="M0 0 C0.66 0 1.32 0 2 0 C2.99 3.96 3.98 7.92 5 12 C4.01 12 3.02 12 2 12 C2.33 12.99 2.66 13.98 3 15 C2.34 15 1.68 15 1 15 C0.34 18.3 -0.32 21.6 -1 25 C-1.33 25 -1.66 25 -2 25 C-3.86447368 6.18315789 -3.86447368 6.18315789 0 0 Z " fill="#A0A0A0" transform="translate(130,277)"/>
<path d="M0 0 C0.66 0.33 1.32 0.66 2 1 C1.67 3.64 1.34 6.28 1 9 C1.60328125 9.10957031 2.2065625 9.21914063 2.828125 9.33203125 C11.35422106 11.02349869 11.35422106 11.02349869 14 14 C14.75 16.6875 14.75 16.6875 15 19 C9.67812773 17.78623966 4.96093728 16.27376292 0 14 C0.99 13.67 1.98 13.34 3 13 C2.319375 12.525625 1.63875 12.05125 0.9375 11.5625 C-1.33788214 8.55312362 -1.17604334 7.85716698 -0.75 4.25 C-0.52093516 2.82979799 -0.27748242 1.41154099 0 0 Z " fill="#B4B4B4" transform="translate(128,303)"/>
<path d="M0 0 C0.99 0.33 1.98 0.66 3 1 C2.67 2.32 2.34 3.64 2 5 C1.34 5 0.68 5 0 5 C-3.4821006 10.82185199 -6.10463724 16.48180123 -8 23 C-8.33 23 -8.66 23 -9 23 C-9.50146657 15.42228293 -8.94998798 10.54216759 -5 4 C-4.34 4 -3.68 4 -3 4 C-3 3.34 -3 2.68 -3 2 C-2.01 2 -1.02 2 0 2 C0 1.34 0 0.68 0 0 Z " fill="#D9D9D9" transform="translate(299,302)"/>
<path d="M0 0 C6.67692308 3.33846154 6.67692308 3.33846154 8.3125 6.6875 C8.6528125 7.8321875 8.6528125 7.8321875 9 9 C9.66 9.33 10.32 9.66 11 10 C12.14242743 14.68395246 12.08252495 19.21355271 12 24 C9.40777753 20.11166629 7.98128888 15.96989006 6.31640625 11.6171875 C5.22638552 8.68356285 5.22638552 8.68356285 2 8 C0.04457812 5.01540871 0 3.73585209 0 0 Z " fill="#DBDBDA" transform="translate(141,302)"/>
<path d="M0 0 C0.625 1.8125 0.625 1.8125 1 4 C0.01 5.485 0.01 5.485 -1 7 C-0.01 7.33 0.98 7.66 2 8 C1.690625 8.9075 1.38125 9.815 1.0625 10.75 C0.2727737 13.16563338 -0.42949297 15.52780285 -1 18 C-0.01 18 0.98 18 2 18 C1.34 18.66 0.68 19.32 0 20 C-0.99 20 -1.98 20 -3 20 C-3 20.99 -3 21.98 -3 23 C-3.66 22.67 -4.32 22.34 -5 22 C-5.44921875 20.00390625 -5.44921875 20.00390625 -5.6875 17.5625 C-5.77386719 16.75941406 -5.86023438 15.95632813 -5.94921875 15.12890625 C-6 13 -6 13 -5 11 C-4.77532169 9.46331135 -4.59203195 7.92031946 -4.4375 6.375 C-4.35371094 5.55773437 -4.26992188 4.74046875 -4.18359375 3.8984375 C-4.12300781 3.27195312 -4.06242187 2.64546875 -4 2 C-3.34 2.66 -2.68 3.32 -2 4 C-1.34 2.68 -0.68 1.36 0 0 Z " fill="#8B8B8B" transform="translate(331,270)"/>
<path d="M0 0 C0.33 0.66 0.66 1.32 1 2 C-0.77386662 5.79869828 -2.92282259 9.35434168 -5 13 C1.93 13.495 1.93 13.495 9 14 C9.33 13.34 9.66 12.68 10 12 C10 12.99 10 13.98 10 15 C7.2291017 15.02696009 4.4584655 15.04681952 1.6875 15.0625 C0.50897461 15.07506836 0.50897461 15.07506836 -0.69335938 15.08789062 C-1.45068359 15.09111328 -2.20800781 15.09433594 -2.98828125 15.09765625 C-4.03302612 15.10551147 -4.03302612 15.10551147 -5.09887695 15.11352539 C-7 15 -7 15 -10 14 C-8.8249025 10.86640667 -7.51537716 7.79350276 -6.125 4.75 C-5.81820312 4.06421875 -5.51140625 3.3784375 -5.1953125 2.671875 C-4 1 -4 1 -1.8671875 0.265625 C-1.25101563 0.17796875 -0.63484375 0.0903125 0 0 Z " fill="#8F8F8F" transform="translate(142,252)"/>
<path d="M0 0 C0.33 0.66 0.66 1.32 1 2 C0.57589844 2.46148437 0.15179688 2.92296875 -0.28515625 3.3984375 C-4.99544427 8.63669187 -9.06421026 14.16211127 -13 20 C-14.2877903 16.01229071 -13.62600734 13.7539016 -12.08203125 9.9609375 C-9.45148326 5.1936628 -4.64500862 2.59574011 0 0 Z " fill="#D9D9D9" transform="translate(286,315)"/>
<path d="M0 0 C0.66 0 1.32 0 2 0 C2.53154742 1.60064843 3.04988353 3.20568874 3.5625 4.8125 C3.85253906 5.70582031 4.14257812 6.59914063 4.44140625 7.51953125 C5 10 5 10 4 13 C3.34 13 2.68 13 2 13 C1.67 13.99 1.34 14.98 1 16 C0.34 16.99 -0.32 17.98 -1 19 C-2.32 18.34 -3.64 17.68 -5 17 C-5 16.34 -5 15.68 -5 15 C-4.34 14.67 -3.68 14.34 -3 14 C-2.25517713 11.32740027 -1.59677922 8.70305881 -1 6 C-0.81566406 5.29488281 -0.63132812 4.58976562 -0.44140625 3.86328125 C0.07683907 1.99478584 0.07683907 1.99478584 0 0 Z " fill="#B7B7B7" transform="translate(117,273)"/>
<path d="M0 0 C3.63 0 7.26 0 11 0 C11.33 1.32 11.66 2.64 12 4 C10 6 10 6 7.90625 6.23046875 C7.1121875 6.21628906 6.318125 6.20210938 5.5 6.1875 C4.7059375 6.18105469 3.911875 6.17460937 3.09375 6.16796875 C1 6 1 6 -1 5 C-0.67 3.35 -0.34 1.7 0 0 Z " fill="#C8C8C8" transform="translate(216,289)"/>
<path d="M0 0 C0.33 0.66 0.66 1.32 1 2 C1.99 2 2.98 2 4 2 C4 12.89 4 23.78 4 35 C-1.94 35 -7.88 35 -14 35 C-13.34 34.34 -12.68 33.68 -12 33 C-9.39732338 33.01754613 -6.9560365 33.13739458 -4.375 33.375 C-1.94125 33.58125 0.4925 33.7875 3 34 C3 25.09 3 16.18 3 7 C2.34 6.67 1.68 6.34 1 6 C0.67 5.67 0.34 5.34 0 5 C-0.99 5.495 -0.99 5.495 -2 6 C-1.34 4.02 -0.68 2.04 0 0 Z " fill="#6A6A6A" transform="translate(284,232)"/>
<path d="M0 0 C0 0.99 0 1.98 0 3 C-0.85722656 3.06058594 -1.71445312 3.12117188 -2.59765625 3.18359375 C-8.43604873 3.61143536 -14.22057272 4.059163 -20 5 C-19.67 3.68 -19.34 2.36 -19 1 C-12.65758005 -0.15316726 -6.43311296 -0.09507063 0 0 Z " fill="#F0F0F0" transform="translate(305,329)"/>
<path d="M0 0 C0.66 0 1.32 0 2 0 C2 6.6 2 13.2 2 20 C1.01 18.68 0.02 17.36 -1 16 C-2.32 17.32 -3.64 18.64 -5 20 C-3.33333333 13.33333333 -1.66666667 6.66666667 0 0 Z " fill="#AEAEAE" transform="translate(328,246)"/>
<path d="M0 0 C0.33 1.32 0.66 2.64 1 4 C1.66 4 2.32 4 3 4 C3.33 3.34 3.66 2.68 4 2 C3.5020163 5.73487777 3.12508244 7.81237635 1 11 C1.99 10.67 2.98 10.34 4 10 C4 10.66 4 11.32 4 12 C2.35 12 0.7 12 -1 12 C-1.33 13.32 -1.66 14.64 -2 16 C-2.66 15.67 -3.32 15.34 -4 15 C-3.36156521 9.6797101 -2.4097052 4.81941041 0 0 Z " fill="#A4A4A4" transform="translate(321,283)"/>
<path d="M0 0 C2.46800047 1.15173355 4.04783565 2.04783565 6 4 C6 5.32 6 6.64 6 8 C2.125 6.125 2.125 6.125 1 5 C0.67 7.31 0.34 9.62 0 12 C-2.50298434 9.06171403 -3.46930939 6.82097239 -4 3 C-2.68 2.01 -1.36 1.02 0 0 Z " fill="#D5D5D5" transform="translate(107,269)"/>
<path d="M0 0 C1.32 0 2.64 0 4 0 C4.03738281 0.72445313 4.07476562 1.44890625 4.11328125 2.1953125 C4.49860998 7.86191152 4.984536 12.14903618 8 17 C7.01 17 6.02 17 5 17 C4.38125 15.3603125 4.38125 15.3603125 3.75 13.6875 C2.39714409 10.48984058 1.05944156 8.79346574 -2 7 C-2 7.66 -2 8.32 -2 9 C-2.66 8.67 -3.32 8.34 -4 8 C-2.68 5.36 -1.36 2.72 0 0 Z " fill="#919191" transform="translate(301,295)"/>
<path d="M0 0 C0.33 0.99 0.66 1.98 1 3 C1.99 2.67 2.98 2.34 4 2 C3.34 3.98 2.68 5.96 2 8 C1.34 8 0.68 8 0 8 C-0.268125 8.639375 -0.53625 9.27875 -0.8125 9.9375 C-2 12 -2 12 -5 13 C-5.66 12.67 -6.32 12.34 -7 12 C-6.67 11.01 -6.34 10.02 -6 9 C-5.34 9 -4.68 9 -4 9 C-3.67 8.01 -3.34 7.02 -3 6 C-2.01577854 3.99218823 -1.01765927 1.99107248 0 0 Z " fill="#959595" transform="translate(267,330)"/>
<path d="M0 0 C3.4340702 1.38517117 4.70022022 2.65444364 6.25 6 C6.75273437 7.051875 6.75273437 7.051875 7.265625 8.125 C8 10 8 10 8 12 C6.68 12.33 5.36 12.66 4 13 C0.88303339 8.66335081 0.44033187 5.19591612 0 0 Z " fill="#BCBCBC" transform="translate(166,252)"/>
<path d="M0 0 C0.66 0 1.32 0 2 0 C2.36463732 1.74784829 2.7163078 3.49840502 3.0625 5.25 C3.25972656 6.22453125 3.45695312 7.1990625 3.66015625 8.203125 C3.98397535 10.868119 3.85503199 12.48871723 3 15 C2.34 15 1.68 15 1 15 C0.67 17.31 0.34 19.62 0 22 C-0.33 22 -0.66 22 -1 22 C-0.67 14.74 -0.34 7.48 0 0 Z " fill="#A7A7A7" transform="translate(335,211)"/>
<path d="M0 0 C0 0.66 0 1.32 0 2 C-2.046875 3.91015625 -2.046875 3.91015625 -4.75 6.0625 C-5.63171875 6.77535156 -6.5134375 7.48820312 -7.421875 8.22265625 C-9.75201668 9.8290418 -11.24350751 10.5813738 -14 11 C-14 9.68 -14 8.36 -14 7 C-13.01 7 -12.02 7 -11 7 C-10.34 5.68 -9.68 4.36 -9 3 C-7.68 3 -6.36 3 -5 3 C-5 2.34 -5 1.68 -5 1 C-2 0 -2 0 0 0 Z " fill="#EFEFEF" transform="translate(330,292)"/>
<path d="M0 0 C0.66 0.99 1.32 1.98 2 3 C1.67 3.61875 1.34 4.2375 1 4.875 C-0.14193235 6.91018344 -0.14193235 6.91018344 0 9 C-3.08809695 10.76462683 -4.23312136 11 -8 11 C-7.34 7.7 -6.68 4.4 -6 1 C-5.01 1.99 -4.02 2.98 -3 4 C-2.01 4 -1.02 4 0 4 C0 2.68 0 1.36 0 0 Z " fill="#8A8A8A" transform="translate(208,350)"/>
<path d="M0 0 C0.33 0 0.66 0 1 0 C1.11269443 6.1105424 0.89604368 11.95170514 0 18 C-0.33 18 -0.66 18 -1 18 C-1.12375 17.195625 -1.2475 16.39125 -1.375 15.5625 C-1.684375 14.2940625 -1.684375 14.2940625 -2 13 C-2.66 12.67 -3.32 12.34 -4 12 C-4.33 12.99 -4.66 13.98 -5 15 C-4.37321829 11.33827525 -3.35548154 8.1181005 -1.9375 4.6875 C-1.39416016 3.36298828 -1.39416016 3.36298828 -0.83984375 2.01171875 C-0.56269531 1.34785156 -0.28554688 0.68398437 0 0 Z " fill="#7D7D7D" transform="translate(344,242)"/>
<path d="M0 0 C0.99 0 1.98 0 3 0 C3.33872513 1.41538717 3.67074624 2.83237963 4 4.25 C4.185625 5.03890625 4.37125 5.8278125 4.5625 6.640625 C5 9 5 9 5 13 C3.0625 12.6875 3.0625 12.6875 1 12 C0.03929566 9.11788698 -0.10581883 7.30149956 -0.0625 4.3125 C-0.05347656 3.50425781 -0.04445312 2.69601562 -0.03515625 1.86328125 C-0.02355469 1.24839844 -0.01195312 0.63351562 0 0 Z " fill="#F3F3F3" transform="translate(129,294)"/>
<path d="M0 0 C1.99916591 3.99833183 2.76704369 6.57383008 3 11 C1.5625 13.9375 1.5625 13.9375 0 16 C-0.99 15.34 -1.98 14.68 -3 14 C-2.01 9.38 -1.02 4.76 0 0 Z " fill="#8C8C8C" transform="translate(334,252)"/>
<path d="M0 0 C0.66 0 1.32 0 2 0 C3.71767682 3.98188718 5.41037341 7.96479403 7 12 C4.6875 11.875 4.6875 11.875 2 11 C-0.17198542 7.81442139 -1.10800103 5.99360948 -0.6875 2.125 C-0.460625 1.42375 -0.23375 0.7225 0 0 Z " fill="#DBDBDB" transform="translate(236,349)"/>
<path d="M0 0 C1.10084497 4.40337988 0.7915332 5.26798414 -0.9375 9.25 C-1.31777344 10.14203125 -1.69804687 11.0340625 -2.08984375 11.953125 C-2.54037109 12.96632813 -2.54037109 12.96632813 -3 14 C-3.33 14 -3.66 14 -4 14 C-4.185625 12.576875 -4.185625 12.576875 -4.375 11.125 C-4.71687177 7.91332809 -4.71687177 7.91332809 -7 6 C-4.69 4.02 -2.38 2.04 0 0 Z " fill="#AEAEAE" transform="translate(335,285)"/>
<path d="M0 0 C1.32 0.33 2.64 0.66 4 1 C2.68938409 5.23429756 1.05643741 9.07407404 -1 13 C-1.33 11.68 -1.66 10.36 -2 9 C-2.99 9 -3.98 9 -5 9 C-3.35 6.03 -1.7 3.06 0 0 Z " fill="#909090" transform="translate(275,250)"/>
<path d="M0 0 C0.66 0.33 1.32 0.66 2 1 C-1.75 4 -1.75 4 -4 4 C-3.67 4.99 -3.34 5.98 -3 7 C-1.35 7.33 0.3 7.66 2 8 C2 8.33 2 8.66 2 9 C-6.415 9.495 -6.415 9.495 -15 10 C-11 8 -11 8 -7 8 C-6.87625 7.21625 -6.7525 6.4325 -6.625 5.625 C-6 3 -6 3 -4 1 C-3.01 1 -2.02 1 -1 1 C-0.67 0.67 -0.34 0.34 0 0 Z " fill="#646464" transform="translate(303,320)"/>
<path d="M0 0 C5.04095775 0.44479039 7.41115715 2.66154153 11 6 C11 6.33 11 6.66 11 7 C7.7 6.67 4.4 6.34 1 6 C0.67 4.02 0.34 2.04 0 0 Z " fill="#E2E2E2" transform="translate(134,320)"/>
<path d="M0 0 C4.1666604 0.47348414 6.92884715 1.04696841 10 4 C10 4.66 10 5.32 10 6 C7.03 6 4.06 6 1 6 C0.67 4.02 0.34 2.04 0 0 Z " fill="#E9E9E9" transform="translate(121,310)"/>
<path d="M0 0 C0.66 0 1.32 0 2 0 C2 0.66 2 1.32 2 2 C2.99 1.67 3.98 1.34 5 1 C4.34 4.96 3.68 8.92 3 13 C2.34 13 1.68 13 1 13 C1 10.69 1 8.38 1 6 C0.34 5.67 -0.32 5.34 -1 5 C-0.67 3.35 -0.34 1.7 0 0 Z " fill="#F7F7F7" transform="translate(323,268)"/>
<path d="M0 0 C0.99 0.495 0.99 0.495 2 1 C3.74451341 6.52429247 4.20612487 11.22850374 4 17 C0.75101933 12.90345916 -0.13007859 10.01605176 -0.0625 4.8125 C-0.05347656 3.91144531 -0.04445313 3.01039063 -0.03515625 2.08203125 C-0.02355469 1.39496094 -0.01195313 0.70789063 0 0 Z " fill="#DFDFDF" transform="translate(104,244)"/>
<path d="M0 0 C1.77074917 -0.02705729 3.54161711 -0.04642195 5.3125 -0.0625 C6.29863281 -0.07410156 7.28476563 -0.08570313 8.30078125 -0.09765625 C11 0 11 0 14 1 C14 1.66 14 2.32 14 3 C12.41773035 3.19627391 10.83410729 3.38165538 9.25 3.5625 C8.36828125 3.66691406 7.4865625 3.77132813 6.578125 3.87890625 C4.11567549 3.99456676 2.33461936 3.73638695 0 3 C0 2.01 0 1.02 0 0 Z " fill="#F9F9F9" transform="translate(139,329)"/>
<path d="M0 0 C2.31 1.98 4.62 3.96 7 6 C6.67 6.66 6.34 7.32 6 8 C3.25851328 7.62952882 1.41406801 7.31412056 -0.8125 5.625 C-2 4 -2 4 -2 1 C-1.34 0.67 -0.68 0.34 0 0 Z " fill="#BBBBBB" transform="translate(244,353)"/>
<path d="M0 0 C0.99 0 1.98 0 3 0 C3 0.66 3 1.32 3 2 C3.99 2 4.98 2 6 2 C5.5359375 2.8353125 5.5359375 2.8353125 5.0625 3.6875 C3.94238179 6.12540433 3.43962636 8.36224186 3 11 C1.35 11.33 -0.3 11.66 -2 12 C-1.34 11.67 -0.68 11.34 0 11 C0 7.37 0 3.74 0 0 Z " fill="#838383" transform="translate(313,301)"/>
<path d="M0 0 C2.475 0.495 2.475 0.495 5 1 C5 1.66 5 2.32 5 3 C5.99 3.33 6.98 3.66 8 4 C7.360625 4.309375 6.72125 4.61875 6.0625 4.9375 C4.06389179 5.8345163 4.06389179 5.8345163 3 7 C3.99 7.33 4.98 7.66 6 8 C3.03 7.505 3.03 7.505 0 7 C0 4.69 0 2.38 0 0 Z " fill="#AAAAAA" transform="translate(186,341)"/>
<path d="M0 0 C2.71198863 0.67799716 4.51840541 1.37931132 6.2578125 3.62109375 C7.375 5.5 7.375 5.5 9 9 C8.67 9.66 8.34 10.32 8 11 C6.35 9.68 4.7 8.36 3 7 C2.34 7.66 1.68 8.32 1 9 C0.67 6.03 0.34 3.06 0 0 Z " fill="#969696" transform="translate(137,294)"/>
<path d="M0 0 C0.99 0.33 1.98 0.66 3 1 C3 3.97 3 6.94 3 10 C2.34 9.01 1.68 8.02 1 7 C0.34 7.66 -0.32 8.32 -1 9 C-1 8.01 -1 7.02 -1 6 C-1.99 6 -2.98 6 -4 6 C-3.67 4.68 -3.34 3.36 -3 2 C-2.01 2.33 -1.02 2.66 0 3 C0 2.01 0 1.02 0 0 Z " fill="#C8C8C8" transform="translate(340,254)"/>
<path d="M0 0 C3.00617269 3.00617269 2.59585316 5.82381598 3 10 C4.65 10 6.3 10 8 10 C8 10.33 8 10.66 8 11 C5.36 11 2.72 11 0 11 C0.33 10.01 0.66 9.02 1 8 C-0.65 6.35 -2.3 4.7 -4 3 C-2.68 3.33 -1.36 3.66 0 4 C-0.33 3.01 -0.66 2.02 -1 1 C-0.67 0.67 -0.34 0.34 0 0 Z " fill="#6E6E6E" transform="translate(143,318)"/>
<path d="M0 0 C0.33 0 0.66 0 1 0 C1.05386629 2.12472576 1.09273071 4.24983652 1.125 6.375 C1.14820312 7.55835938 1.17140625 8.74171875 1.1953125 9.9609375 C1 13 1 13 -1 15 C-2.65 13.68 -4.3 12.36 -6 11 C-5.01 10.67 -4.02 10.34 -3 10 C-3 8.35 -3 6.7 -3 5 C-2.34 5 -1.68 5 -1 5 C-0.67 3.35 -0.34 1.7 0 0 Z " fill="#777777" transform="translate(125,283)"/>
<path d="M0 0 C0.99 0.33 1.98 0.66 3 1 C4.1875 4.0625 4.1875 4.0625 5 7 C4.34 7 3.68 7 3 7 C3.33 8.65 3.66 10.3 4 12 C1.44065399 10.720327 1.3010767 9.75798964 0.3125 7.125 C-0.09548828 6.07699219 -0.09548828 6.07699219 -0.51171875 5.0078125 C-1 3 -1 3 0 0 Z " fill="#AFAFAF" transform="translate(163,245)"/>
<path d="M0 0 C0.66 0 1.32 0 2 0 C2.66 0.99 3.32 1.98 4 3 C5.65 2.67 7.3 2.34 9 2 C8.67 3.98 8.34 5.96 8 8 C7.01 7.67 6.02 7.34 5 7 C5 7.66 5 8.32 5 9 C4.34 9 3.68 9 3 9 C2.01 6.03 1.02 3.06 0 0 Z " fill="#A3A3A3" transform="translate(107,273)"/>
<path d="M0 0 C2.02045442 0.60183749 4.02111039 1.27306096 6 2 C6.33 2.66 6.66 3.32 7 4 C6.34 4 5.68 4 5 4 C5.09539062 4.60328125 5.19078125 5.2065625 5.2890625 5.828125 C5.39992187 6.62734375 5.51078125 7.4265625 5.625 8.25 C5.74101562 9.03890625 5.85703125 9.8278125 5.9765625 10.640625 C6.00319395 13.32152459 5.36592084 14.72694089 4 17 C3.80543295 15.04235617 3.61955753 13.08384679 3.4375 11.125 C3.33308594 10.03445313 3.22867188 8.94390625 3.12109375 7.8203125 C3 5 3 5 4 3 C2.68 2.67 1.36 2.34 0 2 C0 1.34 0 0.68 0 0 Z " fill="#6D6D6C" transform="translate(149,309)"/>
<path d="M0 0 C3.79304947 3.2095034 5.25831477 6.63421928 6.75 11.25 C6.97042969 11.8996875 7.19085938 12.549375 7.41796875 13.21875 C7.95583998 14.80897798 8.47939178 16.4040371 9 18 C8.01 18 7.02 18 6 18 C5 16 5 16 4.6875 13.375 C3.94039336 9.70738557 2.61583938 6.99563389 0.83984375 3.734375 C0 2 0 2 0 0 Z " fill="#80807F" transform="translate(144,309)"/>
<path d="M0 0 C2 2 2 2 2.1953125 4.8203125 C2.16050781 6.45613281 2.16050781 6.45613281 2.125 8.125 C2.10695312 9.22070312 2.08890625 10.31640625 2.0703125 11.4453125 C2.04710937 12.28835937 2.02390625 13.13140625 2 14 C1.67 14 1.34 14 1 14 C0.87625 12.88625 0.7525 11.7725 0.625 10.625 C0.3534187 6.96896323 0.3534187 6.96896323 -2 5 C-2.99 5.66 -3.98 6.32 -5 7 C-4.34 5.35 -3.68 3.7 -3 2 C-2.01 2 -1.02 2 0 2 C0 1.34 0 0.68 0 0 Z " fill="#797979" transform="translate(150,234)"/>
<path d="M0 0 C2.31 1.98 4.62 3.96 7 6 C6.67 6.66 6.34 7.32 6 8 C5.34 7.67 4.68 7.34 4 7 C3.67 7.66 3.34 8.32 3 9 C-1.875 6.25 -1.875 6.25 -3 4 C-1.68 4.33 -0.36 4.66 1 5 C0.67 3.35 0.34 1.7 0 0 Z " fill="#747474" transform="translate(182,334)"/>
<path d="M0 0 C0 0.99 0 1.98 0 3 C-5.29230769 6.07692308 -5.29230769 6.07692308 -8.875 5.6875 C-9.57625 5.460625 -10.2775 5.23375 -11 5 C-7.72709962 2.33319229 -4.35126896 0 0 0 Z " fill="#E7E7E7" transform="translate(323,309)"/>
<path d="M0 0 C0.66 0 1.32 0 2 0 C3.26264601 4.29299643 2.62950412 6.87831311 1 11 C-0.32 10.34 -1.64 9.68 -3 9 C-3 8.34 -3 7.68 -3 7 C-2.34 6.67 -1.68 6.34 -1 6 C-0.34227572 2.97065509 -0.34227572 2.97065509 0 0 Z " fill="#6C6C6C" transform="translate(115,281)"/>
<path d="M0 0 C0.3125 2.1875 0.3125 2.1875 0 5 C-2.5 7.8125 -2.5 7.8125 -5 10 C-5.66 9.67 -6.32 9.34 -7 9 C-3.5 0 -3.5 0 0 0 Z " fill="#DFDFDF" transform="translate(335,279)"/>
<path d="M0 0 C0.66 0.33 1.32 0.66 2 1 C2 1.99 2 2.98 2 4 C1.01 4.495 1.01 4.495 0 5 C-0.495 5.845625 -0.99 6.69125 -1.5 7.5625 C-1.995 8.366875 -2.49 9.17125 -3 10 C-3.66 10 -4.32 10 -5 10 C-4.55090939 8.51800098 -4.09043436 7.03944764 -3.625 5.5625 C-3.36976563 4.73878906 -3.11453125 3.91507812 -2.8515625 3.06640625 C-2 1 -2 1 0 0 Z " fill="#ECECEC" transform="translate(335,267)"/>
<path d="M0 0 C2.61047801 1.305239 2.68066423 2.35826574 3.625 5.0625 C3.88539063 5.79597656 4.14578125 6.52945313 4.4140625 7.28515625 C4.60742188 7.85105469 4.80078125 8.41695312 5 9 C4.01 9 3.02 9 2 9 C1.67 9.66 1.34 10.32 1 11 C-0.4606285 8.35261084 -1 7.10551666 -1 4 C-0.34 4 0.32 4 1 4 C0.67 2.68 0.34 1.36 0 0 Z " fill="#A5A5A5" transform="translate(293,233)"/>
<path d="M0 0 C0.99 0.33 1.98 0.66 3 1 C2.67 1.99 2.34 2.98 2 4 C1.77820215 5.89212737 1.59385985 7.78884472 1.4375 9.6875 C1.35371094 10.68136719 1.26992188 11.67523438 1.18359375 12.69921875 C1.12300781 13.45847656 1.06242187 14.21773438 1 15 C-1 13 -1 13 -1.1953125 10.8359375 C-1.17210937 10.02382813 -1.14890625 9.21171875 -1.125 8.375 C-1.10695313 7.55773437 -1.08890625 6.74046875 -1.0703125 5.8984375 C-1.04710937 5.27195312 -1.02390625 4.64546875 -1 4 C-1.66 3.67 -2.32 3.34 -3 3 C-2.01 2.01 -1.02 1.02 0 0 Z " fill="#6D6D6D" transform="translate(289,310)"/>
<path d="M0 0 C0.66 0 1.32 0 2 0 C1.34 4.29 0.68 8.58 0 13 C-2 11 -2 11 -2.265625 8.90625 C-2.25789063 7.71515625 -2.25789063 7.71515625 -2.25 6.5 C-2.25515625 5.7059375 -2.2603125 4.911875 -2.265625 4.09375 C-2 2 -2 2 0 0 Z " fill="#FCFCFC" transform="translate(307,295)"/>
<path d="M0 0 C0.66 0 1.32 0 2 0 C2.36504603 1.58086048 2.71660506 3.16483907 3.0625 4.75 C3.25972656 5.63171875 3.45695312 6.5134375 3.66015625 7.421875 C3.99825872 9.98679028 3.81158635 11.57091639 3 14 C-0.00559652 8.99067246 -0.29341888 5.67276511 0 0 Z " fill="#ABABAB" transform="translate(113,246)"/>
<path d="M0 0 C1.32 0.33 2.64 0.66 4 1 C4.33 3.31 4.66 5.62 5 8 C4.01 8 3.02 8 2 8 C0.23537317 4.91190305 0 3.76687864 0 0 Z " fill="#CDCDCD" transform="translate(299,249)"/>
<path d="M0 0 C1.32 0.33 2.64 0.66 4 1 C4.33 2.32 4.66 3.64 5 5 C4.01 5.495 4.01 5.495 3 6 C2.67 6.66 2.34 7.32 2 8 C-0.475 7.01 -0.475 7.01 -3 6 C-1.68 5.67 -0.36 5.34 1 5 C0.67 3.35 0.34 1.7 0 0 Z " fill="#8A8A8A" transform="translate(181,342)"/>
<path d="M0 0 C0.66 1.32 1.32 2.64 2 4 C2.66 3.67 3.32 3.34 4 3 C3.74438677 5.3431213 3.40729228 7.67843403 3 10 C2.01 10.495 2.01 10.495 1 11 C1 9.68 1 8.36 1 7 C0.01 7.33 -0.98 7.66 -2 8 C-1.47731534 5.23723823 -0.89130413 2.6739124 0 0 Z " fill="#A3A3A3" transform="translate(321,269)"/>
<path d="M0 0 C1.98 0 3.96 0 6 0 C4.52307692 4.67692308 4.52307692 4.67692308 1.875 6.3125 C0.946875 6.6528125 0.946875 6.6528125 0 7 C0 4.69 0 2.38 0 0 Z " fill="#ABABAB" transform="translate(305,327)"/>
<path d="M0 0 C1.1577506 3.47325181 1.06866652 6.36067448 1 10 C0.67 9.34 0.34 8.68 0 8 C-0.66 8 -1.32 8 -2 8 C-2.33 5.69 -2.66 3.38 -3 1 C-2.01 0.67 -1.02 0.34 0 0 Z " fill="#CFCFCF" transform="translate(122,285)"/>
<path d="M0 0 C0.66 0 1.32 0 2 0 C2.19294408 4.82360189 1.75747614 8.49646738 0 13 C-0.33 13 -0.66 13 -1 13 C-1.02708567 11.39592672 -1.04643483 9.7917215 -1.0625 8.1875 C-1.07410156 7.29417969 -1.08570313 6.40085937 -1.09765625 5.48046875 C-1 3 -1 3 0 0 Z " fill="#D7D7D7" transform="translate(130,277)"/>
<path d="M0 0 C0.66 0 1.32 0 2 0 C3.60355101 3.50776784 4.22036864 6.14354879 4 10 C1.4375 7.8125 1.4375 7.8125 -1 5 C-0.8125 2.1875 -0.8125 2.1875 0 0 Z " fill="#B1B1B1" transform="translate(311,278)"/>
<path d="M0 0 C0.66 0 1.32 0 2 0 C1.67 3.63 1.34 7.26 1 11 C-2 8 -2 8 -2.1875 5.3125 C-2.125625 4.549375 -2.06375 3.78625 -2 3 C-1.34 3 -0.68 3 0 3 C0 2.01 0 1.02 0 0 Z " fill="#FAFAFA" transform="translate(154,233)"/>
<path d="M0 0 C-0.33 2.31 -0.66 4.62 -1 7 C-2.65 7 -4.3 7 -6 7 C-2.86206897 0 -2.86206897 0 0 0 Z " fill="#C4C4C4" transform="translate(149,238)"/>
<path d="M0 0 C1.98 0 3.96 0 6 0 C6.33 1.32 6.66 2.64 7 4 C6.01 4.495 6.01 4.495 5 5 C2.9375 4.25 2.9375 4.25 1 3 C0.67 2.01 0.34 1.02 0 0 Z " fill="#ADADAD" transform="translate(131,327)"/>
<path d="M0 0 C0.33 0 0.66 0 1 0 C1.05395478 1.62463842 1.09277195 3.24978541 1.125 4.875 C1.14820313 5.77992188 1.17140625 6.68484375 1.1953125 7.6171875 C1 10 1 10 -1 12 C-2.36884358 7.48281619 -1.47075246 4.41225737 0 0 Z " fill="#BCBCBC" transform="translate(344,242)"/>
<path d="M0 0 C1 2 1 2 0.375 5.5 C-1 9 -1 9 -3.625 10.4375 C-4.40875 10.623125 -5.1925 10.80875 -6 11 C-4.68 9.35 -3.36 7.7 -2 6 C-2.66 5.67 -3.32 5.34 -4 5 C-2.68 3.35 -1.36 1.7 0 0 Z " fill="#8D8D8D" transform="translate(258,336)"/>
<path d="M0 0 C0.33 1.32 0.66 2.64 1 4 C1.66 4 2.32 4 3 4 C2.34 5.32 1.68 6.64 1 8 C0.34 8 -0.32 8 -1 8 C-1.66 6.02 -2.32 4.04 -3 2 C-2.01 2.33 -1.02 2.66 0 3 C0 2.01 0 1.02 0 0 Z " fill="#8D8D8D" transform="translate(134,304)"/>
<path d="M0 0 C0.33 0 0.66 0 1 0 C1.66 2.64 2.32 5.28 3 8 C2.01 8 1.02 8 0 8 C-0.33 8.66 -0.66 9.32 -1 10 C-2.23076923 4.58461538 -2.23076923 4.58461538 -1.0625 1.625 C-0.5365625 0.820625 -0.5365625 0.820625 0 0 Z " fill="#B4B4B4" transform="translate(132,281)"/>
<path d="M0 0 C0.33 0.66 0.66 1.32 1 2 C1.66 2 2.32 2 3 2 C2.34 3.98 1.68 5.96 1 8 C0.34 8 -0.32 8 -1 8 C-1.33 5.69 -1.66 3.38 -2 1 C-1.34 0.67 -0.68 0.34 0 0 Z " fill="#EBEBEB" transform="translate(323,279)"/>
<path d="M0 0 C0.66 1.32 1.32 2.64 2 4 C2.66 4 3.32 4 4 4 C3.75 6.375 3.75 6.375 3 9 C1.02 9.99 1.02 9.99 -1 11 C-0.67 7.37 -0.34 3.74 0 0 Z " fill="#B0B0B0" transform="translate(333,233)"/>
<path d="M0 0 C0.66 0 1.32 0 2 0 C3.28317892 3.84953676 3.06643637 6.94738135 3 11 C0.43383368 7.15075052 0.44902324 4.5650696 0 0 Z " fill="#F8F8F7" transform="translate(150,315)"/>
<path d="M0 0 C0 1.98 0 3.96 0 6 C-0.99 6 -1.98 6 -3 6 C-3 5.01 -3 4.02 -3 3 C-4.98 3.99 -4.98 3.99 -7 5 C-3.61290323 0 -3.61290323 0 0 0 Z " fill="#C1C1C1" transform="translate(289,313)"/>
<path d="M0 0 C1.25541557 3.76624671 0.37061958 5.37188934 -1 9 C-2.89213369 6.61426621 -4.02391783 4.92824652 -5 2 C-3.35 1.34 -1.7 0.68 0 0 Z " fill="#B9B9B9" transform="translate(341,265)"/>
<path d="M0 0 C-0.75 6.75 -0.75 6.75 -3 9 C-3 7.68 -3 6.36 -3 5 C-3.99 5 -4.98 5 -6 5 C-1.125 0 -1.125 0 0 0 Z " fill="#AFAFAF" transform="translate(276,254)"/>
<path d="M0 0 C1.98 0.495 1.98 0.495 4 1 C3.67 2.32 3.34 3.64 3 5 C1.68 5.33 0.36 5.66 -1 6 C-0.67 4.02 -0.34 2.04 0 0 Z " fill="#EFEFEF" transform="translate(205,349)"/>
<path d="M0 0 C0.33 0.66 0.66 1.32 1 2 C0.67 2.99 0.34 3.98 0 5 C1.32 5.66 2.64 6.32 4 7 C2.02 7 0.04 7 -2 7 C-2.33 5.02 -2.66 3.04 -3 1 C-2.01 0.67 -1.02 0.34 0 0 Z " fill="#696969" transform="translate(274,333)"/>
<path d="M0 0 C0.99 0.33 1.98 0.66 3 1 C2.67 2.32 2.34 3.64 2 5 C1.34 5 0.68 5 0 5 C-0.66 5.66 -1.32 6.32 -2 7 C-2 5.35 -2 3.7 -2 2 C-1.34 2 -0.68 2 0 2 C0 1.34 0 0.68 0 0 Z " fill="#FBFBFB" transform="translate(299,302)"/>
<path d="M0 0 C2.97 0.495 2.97 0.495 6 1 C6 1.66 6 2.32 6 3 C4.35 3 2.7 3 1 3 C0.67 4.32 0.34 5.64 0 7 C-0.66 6.67 -1.32 6.34 -2 6 C-2 4.68 -2 3.36 -2 2 C-1.34 2 -0.68 2 0 2 C0 1.34 0 0.68 0 0 Z " fill="#7E7E7E" transform="translate(319,292)"/>
<path d="M0 0 C1 3 1 3 0 6 C-2.0625 6.6875 -2.0625 6.6875 -4 7 C-4 5.68 -4 4.36 -4 3 C-2 1.25 -2 1.25 0 0 Z " fill="#E3E3E3" transform="translate(285,235)"/>
<path d="M0 0 C0.66 0 1.32 0 2 0 C2.80967438 2.91482778 3.21845993 4.46113217 2.0625 7.3125 C1.5365625 8.1478125 1.5365625 8.1478125 1 9 C0.67 9 0.34 9 0 9 C0 6.03 0 3.06 0 0 Z " fill="#C8C8C8" transform="translate(218,167)"/>
<path d="M0 0 C0.99 0.33 1.98 0.66 3 1 C2.34 3.97 1.68 6.94 1 10 C0.67 10 0.34 10 0 10 C0 6.7 0 3.4 0 0 Z " fill="#F0F0F0" transform="translate(336,225)"/>
<path d="M0 0 C0.75 1.75 0.75 1.75 1 4 C-0.9375 6.25 -0.9375 6.25 -3 8 C-2.25 2.25 -2.25 2.25 0 0 Z " fill="#F4F4F4" transform="translate(275,327)"/>
<path d="M0 0 C2.625 0.9375 2.625 0.9375 5 2 C4.67 2.66 4.34 3.32 4 4 C3.01 3.67 2.02 3.34 1 3 C1.33 4.32 1.66 5.64 2 7 C1.34 7 0.68 7 0 7 C0 5.68 0 4.36 0 3 C-0.66 3 -1.32 3 -2 3 C-2 2.34 -2 1.68 -2 1 C-1.34 0.67 -0.68 0.34 0 0 Z " fill="#666666" transform="translate(120,307)"/>
<path d="M0 0 C0.99 0.33 1.98 0.66 3 1 C3 2.98 3 4.96 3 7 C1.68 7 0.36 7 -1 7 C-1 6.34 -1 5.68 -1 5 C-0.34 5 0.32 5 1 5 C0.67 3.35 0.34 1.7 0 0 Z " fill="#F2F2F2" transform="translate(112,280)"/>
<path d="M0 0 C1.65 0 3.3 0 5 0 C5 0.99 5 1.98 5 3 C3.68 3.33 2.36 3.66 1 4 C0.67 2.68 0.34 1.36 0 0 Z " fill="#CFCFCF" transform="translate(300,332)"/>
<path d="M0 0 C1.32 0.33 2.64 0.66 4 1 C4 2.32 4 3.64 4 5 C3.01 5 2.02 5 1 5 C0.67 3.35 0.34 1.7 0 0 Z " fill="#DCDCDC" transform="translate(156,234)"/>
<path d="" fill="#000000" transform="translate(0,0)"/>
<path d="" fill="#000000" transform="translate(0,0)"/>
<path d="" fill="#000000" transform="translate(0,0)"/>
<path d="" fill="#000000" transform="translate(0,0)"/>
<path d="" fill="#000000" transform="translate(0,0)"/>
<path d="" fill="#000000" transform="translate(0,0)"/>
<path d="" fill="#000000" transform="translate(0,0)"/>
<path d="" fill="#000000" transform="translate(0,0)"/>
<path d="" fill="#000000" transform="translate(0,0)"/>
<path d="" fill="#000000" transform="translate(0,0)"/>
<path d="" fill="#000000" transform="translate(0,0)"/>
<path d="" fill="#000000" transform="translate(0,0)"/>
<path d="" fill="#000000" transform="translate(0,0)"/>
<path d="" fill="#000000" transform="translate(0,0)"/>
<path d="" fill="#000000" transform="translate(0,0)"/>
<path d="" fill="#000000" transform="translate(0,0)"/>
<path d="" fill="#000000" transform="translate(0,0)"/>
<path d="" fill="#000000" transform="translate(0,0)"/>
<path d="" fill="#000000" transform="translate(0,0)"/>
<path d="" fill="#000000" transform="translate(0,0)"/>
<path d="" fill="#000000" transform="translate(0,0)"/>
<path d="" fill="#000000" transform="translate(0,0)"/>
<path d="" fill="#000000" transform="translate(0,0)"/>
<path d="" fill="#000000" transform="translate(0,0)"/>
<path d="" fill="#000000" transform="translate(0,0)"/>
<path d="" fill="#000000" transform="translate(0,0)"/>
<path d="" fill="#000000" transform="translate(0,0)"/>
<path d="" fill="#000000" transform="translate(0,0)"/>
<path d="" fill="#000000" transform="translate(0,0)"/>
<path d="" fill="#000000" transform="translate(0,0)"/>
<path d="" fill="#000000" transform="translate(0,0)"/>
<path d="" fill="#000000" transform="translate(0,0)"/>
<path d="" fill="#000000" transform="translate(0,0)"/>
<path d="" fill="#000000" transform="translate(0,0)"/>
<path d="" fill="#000000" transform="translate(0,0)"/>
<path d="" fill="#000000" transform="translate(0,0)"/>
<path d="" fill="#000000" transform="translate(0,0)"/>
<path d="" fill="#000000" transform="translate(0,0)"/>
<path d="" fill="#000000" transform="translate(0,0)"/>
<path d="" fill="#000000" transform="translate(0,0)"/>
<path d="" fill="#000000" transform="translate(0,0)"/>
<path d="" fill="#000000" transform="translate(0,0)"/>
<path d="" fill="#000000" transform="translate(0,0)"/>
<path d="" fill="#000000" transform="translate(0,0)"/>
<path d="" fill="#000000" transform="translate(0,0)"/>
<path d="" fill="#000000" transform="translate(0,0)"/>
<path d="" fill="#000000" transform="translate(0,0)"/>
<path d="" fill="#000000" transform="translate(0,0)"/>
<path d="" fill="#000000" transform="translate(0,0)"/>
<path d="" fill="#000000" transform="translate(0,0)"/>
<path d="" fill="#000000" transform="translate(0,0)"/>
<path d="" fill="#000000" transform="translate(0,0)"/>
<path d="" fill="#000000" transform="translate(0,0)"/>
<path d="" fill="#000000" transform="translate(0,0)"/>
<path d="" fill="#000000" transform="translate(0,0)"/>
<path d="" fill="#000000" transform="translate(0,0)"/>
<path d="" fill="#000000" transform="translate(0,0)"/>
<path d="" fill="#000000" transform="translate(0,0)"/>
<path d="" fill="#000000" transform="translate(0,0)"/>
<path d="" fill="#000000" transform="translate(0,0)"/>
<path d="" fill="#000000" transform="translate(0,0)"/>
<path d="" fill="#000000" transform="translate(0,0)"/>
<path d="" fill="#000000" transform="translate(0,0)"/>
<path d="" fill="#000000" transform="translate(0,0)"/>
<path d="" fill="#000000" transform="translate(0,0)"/>
<path d="" fill="#000000" transform="translate(0,0)"/>
<path d="" fill="#000000" transform="translate(0,0)"/>
<path d="" fill="#000000" transform="translate(0,0)"/>
<path d="" fill="#000000" transform="translate(0,0)"/>
<path d="" fill="#000000" transform="translate(0,0)"/>
<path d="" fill="#000000" transform="translate(0,0)"/>
<path d="" fill="#000000" transform="translate(0,0)"/>
<path d="" fill="#000000" transform="translate(0,0)"/>
<path d="" fill="#000000" transform="translate(0,0)"/>
<path d="" fill="#000000" transform="translate(0,0)"/>
<path d="" fill="#000000" transform="translate(0,0)"/>
<path d="" fill="#000000" transform="translate(0,0)"/>
<path d="" fill="#000000" transform="translate(0,0)"/>
<path d="" fill="#000000" transform="translate(0,0)"/>
</svg>
